<svg id="Group_12859" data-name="Group 12859" xmlns="http://www.w3.org/2000/svg" xmlns:xlink="http://www.w3.org/1999/xlink" width="214.406" height="201.345" viewBox="0 0 214.406 201.345">
  <defs>
    <clipPath id="clip-path">
      <rect id="Rectangle_2633" data-name="Rectangle 2633" width="214.406" height="201.345" fill="none"/>
    </clipPath>
  </defs>
  <g id="Group_12852" data-name="Group 12852">
    <g id="Group_12851" data-name="Group 12851" clip-path="url(#clip-path)">
      <path id="Path_99261" data-name="Path 99261" d="M39.244,286.309,73.675,337.19l21.169-14.325-3.531-5.218-30.9-45.664Z" transform="translate(-24.253 -168.089)" fill="#337674"/>
      <path id="Path_99262" data-name="Path 99262" d="M73.206,337.011a.289.289,0,0,1-.24-.127L38.535,286a.289.289,0,0,1,.078-.4l21.17-14.325a.289.289,0,0,1,.4.078l34.431,50.881a.29.29,0,0,1-.078.4L73.368,336.961a.286.286,0,0,1-.162.05M39.177,285.918l34.107,50.4,20.689-14-34.106-50.4Z" transform="translate(-23.784 -167.621)" fill="#337674"/>
      <rect id="Rectangle_2613" data-name="Rectangle 2613" width="23.483" height="58.288" transform="translate(16.733 118.941) rotate(-34.086)" fill="#428481"/>
      <path id="Path_99263" data-name="Path 99263" d="M55.039,298.317l28.251,41.436a2.627,2.627,0,0,0,3.648.7l10.337-6.995a2.937,2.937,0,0,0,.786-4.079L69.823,287.965a3.831,3.831,0,0,0-5.319-1.026L56.141,292.6a4.118,4.118,0,0,0-1.1,5.718" transform="translate(-33.577 -176.925)" fill="#337674"/>
      <path id="Path_99264" data-name="Path 99264" d="M85,340.729a2.916,2.916,0,0,1-2.42-1.281l-28.25-41.435h0a4.414,4.414,0,0,1,1.18-6.121l8.362-5.659a4.125,4.125,0,0,1,5.722,1.1l28.237,41.417a3.23,3.23,0,0,1-.864,4.482l-10.337,6.995a2.9,2.9,0,0,1-1.63.5M54.812,297.686l28.251,41.436a2.342,2.342,0,0,0,3.246.627l10.337-7a2.651,2.651,0,0,0,.709-3.677L69.117,287.661a3.545,3.545,0,0,0-4.917-.949l-8.363,5.659a3.834,3.834,0,0,0-1.025,5.316Z" transform="translate(-33.111 -176.458)" fill="#337674"/>
      <path id="Path_99265" data-name="Path 99265" d="M138.426,399.128a3.155,3.155,0,1,0-4.323-1.1,3.155,3.155,0,0,0,4.323,1.1" transform="translate(-82.604 -243.039)" fill="#5a9390"/>
      <path id="Path_99266" data-name="Path 99266" d="M77.834,309.587a3.155,3.155,0,1,0-4.323-1.1,3.155,3.155,0,0,0,4.323,1.1" transform="translate(-45.157 -187.702)" fill="#5a9390"/>
      <path id="Path_99267" data-name="Path 99267" d="M99.872,348.95c5.169-3.5,7.081-9.7,4.271-13.852s-9.278-4.684-14.447-1.186-7.081,9.7-4.271,13.852,9.278,4.684,14.447,1.186" transform="translate(-51.993 -204.932)" fill="#5a9390"/>
      <path id="Path_99268" data-name="Path 99268" d="M247.858,215.945a.58.58,0,0,1-.395-1l15.81-14.7a.58.58,0,0,1,.789.849l-15.81,14.7a.579.579,0,0,1-.395.155" transform="translate(-152.821 -123.656)" fill="#2d292a"/>
      <path id="Path_99269" data-name="Path 99269" d="M280.532,157a13.525,13.525,0,1,1,13.587,13.408A13.5,13.5,0,0,1,280.532,157" transform="translate(-173.372 -88.668)" fill="#59906f"/>
      <path id="Path_99270" data-name="Path 99270" d="M293.585,170.234a13.759,13.759,0,1,1-.059-27.518h.064a13.759,13.759,0,1,1,.061,27.518Zm0-26.939h-.062a13.18,13.18,0,1,0,.057,26.359h.063a13.18,13.18,0,1,0-.059-26.359" transform="translate(-172.903 -88.2)" fill="#59906f"/>
      <path id="Path_99271" data-name="Path 99271" d="M297.523,171.549a11.37,11.37,0,1,1,11.362-11.421,11.405,11.405,0,0,1-11.362,11.421m-.1-21.838a10.469,10.469,0,1,0,10.56,10.421,10.5,10.5,0,0,0-10.56-10.421" transform="translate(-176.786 -91.966)" fill="#467156"/>
      <rect id="Rectangle_2614" data-name="Rectangle 2614" width="0.901" height="1.618" transform="translate(120.178 55.074) rotate(-0.622)" fill="#467156"/>
      <rect id="Rectangle_2615" data-name="Rectangle 2615" width="1.618" height="0.901" transform="translate(123.597 56.954) rotate(-72.67)" fill="#467156"/>
      <rect id="Rectangle_2616" data-name="Rectangle 2616" width="1.618" height="0.901" transform="translate(126.751 58.255) rotate(-54.679)" fill="#467156"/>
      <rect id="Rectangle_2617" data-name="Rectangle 2617" width="1.618" height="0.901" transform="translate(129.349 60.467) rotate(-36.71)" fill="#467156"/>
      <rect id="Rectangle_2618" data-name="Rectangle 2618" width="1.617" height="0.901" transform="translate(131.135 63.372) rotate(-18.666)" fill="#467156"/>
      <path id="Path_99272" data-name="Path 99272" d="M346.346,175.958l-.012-.9,1.619-.019.009.9Z" transform="translate(-214.039 -108.176)" fill="#467156"/>
      <rect id="Rectangle_2619" data-name="Rectangle 2619" width="0.901" height="1.618" transform="translate(131.747 71.056) rotate(-72.656)" fill="#467156"/>
      <rect id="Rectangle_2620" data-name="Rectangle 2620" width="0.901" height="1.618" transform="translate(130.491 74.568) rotate(-61.77)" fill="#467156"/>
      <rect id="Rectangle_2621" data-name="Rectangle 2621" width="0.901" height="1.618" transform="translate(127.858 77.435) rotate(-42.789)" fill="#467156"/>
      <rect id="Rectangle_2622" data-name="Rectangle 2622" width="0.901" height="1.617" transform="matrix(0.948, -0.319, 0.319, 0.948, 124.634, 79.071)" fill="#467156"/>
      <rect id="Rectangle_2623" data-name="Rectangle 2623" width="0.901" height="1.617" transform="translate(121.044 79.837) rotate(-0.622)" fill="#467156"/>
      <rect id="Rectangle_2624" data-name="Rectangle 2624" width="1.618" height="0.901" transform="translate(116.699 80.877) rotate(-72.563)" fill="#467156"/>
      <rect id="Rectangle_2625" data-name="Rectangle 2625" width="1.618" height="0.901" transform="matrix(0.58, -0.815, 0.815, 0.58, 112.985, 78.903)" fill="#467156"/>
      <rect id="Rectangle_2626" data-name="Rectangle 2626" width="1.618" height="0.901" transform="translate(109.819 75.728) rotate(-36.608)" fill="#467156"/>
      <rect id="Rectangle_2627" data-name="Rectangle 2627" width="1.617" height="0.901" transform="translate(107.96 71.9) rotate(-18.589)" fill="#467156"/>
      <rect id="Rectangle_2628" data-name="Rectangle 2628" width="0.901" height="1.618" transform="translate(108.064 64.222) rotate(-72.63)" fill="#467156"/>
      <rect id="Rectangle_2629" data-name="Rectangle 2629" width="0.901" height="1.618" transform="translate(109.886 60.548) rotate(-54.607)" fill="#467156"/>
      <rect id="Rectangle_2630" data-name="Rectangle 2630" width="0.901" height="1.617" transform="matrix(0.803, -0.596, 0.596, 0.803, 112.665, 57.695)" fill="#467156"/>
      <rect id="Rectangle_2631" data-name="Rectangle 2631" width="0.901" height="1.618" transform="translate(116.297 55.727) rotate(-18.636)" fill="#467156"/>
      <rect id="Rectangle_2632" data-name="Rectangle 2632" width="1.618" height="0.901" transform="translate(107.368 67.888) rotate(-0.437)" fill="#467156"/>
    </g>
  </g>
  <text id="_" data-name="₹" transform="translate(117.371 71.09)" fill="#467156" font-size="12" font-family="MyriadPro-Regular, Myriad Pro"><tspan x="0" y="0">₹</tspan></text>
  <g id="Group_12854" data-name="Group 12854">
    <g id="Group_12853" data-name="Group 12853" clip-path="url(#clip-path)">
      <path id="Path_99273" data-name="Path 99273" d="M327.632,398.929l-49.9,35.839-14.911-20.761,5.117-3.675,44.782-32.164Z" transform="translate(-162.427 -233.713)" fill="#337674"/>
      <path id="Path_99274" data-name="Path 99274" d="M277.265,434.588a.329.329,0,0,1-.047,0,.291.291,0,0,1-.188-.118l-14.911-20.76a.29.29,0,0,1,.066-.4l49.9-35.84a.282.282,0,0,1,.217-.05.289.289,0,0,1,.188.117l14.91,20.76a.29.29,0,0,1-.066.4l-49.9,35.84a.3.3,0,0,1-.169.054M262.759,413.6l14.572,20.289,49.428-35.5L312.187,378.1Z" transform="translate(-161.959 -233.242)" fill="#337674"/>
      <rect id="Rectangle_2634" data-name="Rectangle 2634" width="58.288" height="23.483" transform="translate(102.279 180.22) rotate(-35.687)" fill="#428481"/>
      <path id="Path_99275" data-name="Path 99275" d="M329.052,409.3l-40.835,29.114a2.627,2.627,0,0,1-3.666-.6l-7.281-10.138a2.937,2.937,0,0,1,.672-4.1l40.816-29.1a3.83,3.83,0,0,1,5.346.877l5.89,8.2a4.118,4.118,0,0,1-.942,5.747" transform="translate(-171.016 -243.347)" fill="#337674"/>
      <path id="Path_99276" data-name="Path 99276" d="M286.223,438.731a2.915,2.915,0,0,1-2.373-1.214l-7.281-10.138a3.23,3.23,0,0,1,.738-4.5l40.817-29.1a4.127,4.127,0,0,1,5.749.944l5.89,8.2a4.408,4.408,0,0,1-1.009,6.152h0l-40.835,29.113a2.893,2.893,0,0,1-1.7.546m34.3-45.148a3.517,3.517,0,0,0-2.06.664l-40.817,29.1a2.648,2.648,0,0,0-.605,3.7l7.281,10.138a2.343,2.343,0,0,0,3.261.534L328.417,408.6a3.828,3.828,0,0,0,.875-5.342l-5.89-8.2a3.539,3.539,0,0,0-2.881-1.474m8.064,15.253h0Z" transform="translate(-170.549 -242.881)" fill="#337674"/>
      <path id="Path_99277" data-name="Path 99277" d="M296.771,480.261a3.155,3.155,0,1,1,4.438.459,3.155,3.155,0,0,1-4.438-.459" transform="translate(-182.972 -293.628)" fill="#5a9390"/>
      <path id="Path_99278" data-name="Path 99278" d="M384.584,417.19a3.155,3.155,0,1,1,4.438.459,3.155,3.155,0,0,1-4.438-.459" transform="translate(-237.241 -254.649)" fill="#5a9390"/>
      <path id="Path_99279" data-name="Path 99279" d="M324.279,440.4c-3.641-5.069-3.29-11.549.782-14.475s10.326-1.187,13.966,3.882,3.29,11.549-.782,14.475-10.326,1.187-13.966-3.882" transform="translate(-198.853 -262.351)" fill="#5a9390"/>
      <path id="Path_99280" data-name="Path 99280" d="M299.864,371.185l-38.1,48.2-20.053-15.849,3.907-4.943,34.189-43.256Z" transform="translate(-149.383 -219.601)" fill="#337674"/>
      <path id="Path_99281" data-name="Path 99281" d="M261.3,419.205a.288.288,0,0,1-.179-.062l-20.053-15.851a.289.289,0,0,1-.048-.408l38.1-48.2a.291.291,0,0,1,.407-.048l20.052,15.849a.288.288,0,0,1,.048.407l-38.1,48.2a.293.293,0,0,1-.194.108l-.034,0m-19.646-16.188,19.6,15.49,37.737-47.744-19.6-15.49Z" transform="translate(-148.913 -219.133)" fill="#337674"/>
      <rect id="Rectangle_2635" data-name="Rectangle 2635" width="58.288" height="23.484" transform="translate(94.123 183.341) rotate(-51.677)" fill="#428481"/>
      <path id="Path_99282" data-name="Path 99282" d="M302.282,383.033l-31.235,39.236a2.627,2.627,0,0,1-3.69.432l-9.792-7.74a2.937,2.937,0,0,1-.483-4.126L288.3,371.617a3.83,3.83,0,0,1,5.38-.63l7.921,6.261a4.118,4.118,0,0,1,.677,5.784" transform="translate(-158.489 -228.765)" fill="#337674"/>
      <path id="Path_99283" data-name="Path 99283" d="M268.513,423.09a2.894,2.894,0,0,1-1.8-.63l-9.792-7.739a3.232,3.232,0,0,1-.531-4.534l31.221-39.219a4.124,4.124,0,0,1,5.787-.677l7.922,6.262a4.414,4.414,0,0,1,.725,6.192h0l-31.235,39.235a2.9,2.9,0,0,1-1.949,1.088,2.991,2.991,0,0,1-.345.02m22.332-53.1a3.537,3.537,0,0,0-2.782,1.343l-31.221,39.218a2.651,2.651,0,0,0,.436,3.719l9.792,7.739a2.337,2.337,0,0,0,3.282-.384l31.236-39.237a3.832,3.832,0,0,0-.63-5.376l-7.922-6.262a3.519,3.519,0,0,0-2.191-.761m10.97,12.58h0Z" transform="translate(-158.022 -228.297)" fill="#337674"/>
      <path id="Path_99284" data-name="Path 99284" d="M277.835,478.507a3.155,3.155,0,1,1,4.392-.781,3.155,3.155,0,0,1-4.392.781" transform="translate(-170.872 -292.175)" fill="#5a9390"/>
      <path id="Path_99285" data-name="Path 99285" d="M344.878,393.687a3.155,3.155,0,1,1,4.392-.781,3.155,3.155,0,0,1-4.392.781" transform="translate(-212.305 -239.755)" fill="#5a9390"/>
      <path id="Path_99286" data-name="Path 99286" d="M295.2,430.127c-4.9-3.87-6.345-10.2-3.235-14.13s9.6-3.986,14.5-.116,6.345,10.2,3.235,14.13-9.6,3.986-14.5.116" transform="translate(-179.428 -255.247)" fill="#5a9390"/>
      <path id="Path_99287" data-name="Path 99287" d="M82.652,285.86l34.431,50.881,21.169-14.325-3.531-5.218-30.9-45.663Z" transform="translate(-51.08 -167.812)" fill="#337674"/>
      <path id="Path_99288" data-name="Path 99288" d="M116.614,336.562a.289.289,0,0,1-.24-.127L81.943,285.554a.289.289,0,0,1,.078-.4l21.17-14.325a.289.289,0,0,1,.4.078l34.431,50.881a.29.29,0,0,1-.078.4l-21.169,14.324a.286.286,0,0,1-.162.05M82.585,285.469l34.107,50.4,20.689-14-34.106-50.4Z" transform="translate(-50.611 -167.343)" fill="#337674"/>
      <rect id="Rectangle_2636" data-name="Rectangle 2636" width="23.483" height="58.288" transform="translate(33.314 118.77) rotate(-34.086)" fill="#428481"/>
      <path id="Path_99289" data-name="Path 99289" d="M98.448,297.867,126.7,339.3a2.627,2.627,0,0,0,3.648.7l10.337-6.995a2.937,2.937,0,0,0,.786-4.079l-28.238-41.418a3.831,3.831,0,0,0-5.319-1.026l-8.363,5.659a4.118,4.118,0,0,0-1.1,5.718" transform="translate(-60.404 -176.647)" fill="#337674"/>
      <path id="Path_99290" data-name="Path 99290" d="M128.412,340.28a2.916,2.916,0,0,1-2.42-1.281l-28.25-41.435h0a4.414,4.414,0,0,1,1.18-6.121l8.362-5.659a4.125,4.125,0,0,1,5.722,1.1L141.243,328.3a3.23,3.23,0,0,1-.864,4.482l-10.337,6.995a2.9,2.9,0,0,1-1.63.5M98.221,297.237l28.251,41.436a2.342,2.342,0,0,0,3.246.627l10.337-7a2.651,2.651,0,0,0,.709-3.677l-28.237-41.417a3.545,3.545,0,0,0-4.917-.949l-8.363,5.659a3.833,3.833,0,0,0-1.025,5.316Z" transform="translate(-59.938 -176.181)" fill="#337674"/>
      <path id="Path_99291" data-name="Path 99291" d="M181.834,398.679a3.155,3.155,0,1,0-4.323-1.1,3.155,3.155,0,0,0,4.323,1.1" transform="translate(-109.43 -242.762)" fill="#5a9390"/>
      <path id="Path_99292" data-name="Path 99292" d="M121.242,309.138a3.155,3.155,0,1,0-4.323-1.1,3.155,3.155,0,0,0,4.323,1.1" transform="translate(-71.984 -187.424)" fill="#5a9390"/>
      <path id="Path_99293" data-name="Path 99293" d="M143.28,348.5c5.169-3.5,7.081-9.7,4.271-13.852s-9.278-4.684-14.447-1.186-7.081,9.7-4.271,13.852S138.111,352,143.28,348.5" transform="translate(-78.819 -204.655)" fill="#5a9390"/>
      <path id="Path_99294" data-name="Path 99294" d="M248.3,253.234a.579.579,0,0,1-.579-.579V131.973a.579.579,0,0,1,1.159,0V252.655a.579.579,0,0,1-.579.579" transform="translate(-153.093 -81.203)" fill="#2d292a"/>
      <path id="Path_99295" data-name="Path 99295" d="M226.519,326.963h-73.53l11.03,74.355h50.736Z" transform="translate(-94.549 -202.067)" fill="#becc87"/>
      <rect id="Rectangle_2637" data-name="Rectangle 2637" width="73.854" height="18.571" transform="translate(58.278 122.224)" fill="#b8c67b"/>
      <path id="Path_99296" data-name="Path 99296" d="M433.735,68.736l-48.753,5.779L382,6.7,419.12,2.3Z" transform="translate(-236.081 -1.424)" fill="#d6aa30"/>
      <path id="Path_99297" data-name="Path 99297" d="M304.126,93.573l32.729,32.747-1.1-25.115L307.8,86.129Z" transform="translate(-187.953 -53.229)" fill="#d6aa30"/>
      <path id="Path_99298" data-name="Path 99298" d="M287.2,83.636l7.54-14.468,2.6,6.479-3.673,7.443Z" transform="translate(-177.491 -42.747)" fill="#d6aa30"/>
      <path id="Path_99299" data-name="Path 99299" d="M289.967,83.535a.164.164,0,0,1-.146-.24l7.54-14.468a.175.175,0,0,1,.153-.088.164.164,0,0,1,.144.1l2.6,6.479a.161.161,0,0,1-.005.133L296.58,82.9a.162.162,0,0,1-.134.091l-6.466.546h-.014M297.487,69.3,290.25,83.182l6.076-.513,3.6-7.294Z" transform="translate(-179.102 -42.481)" fill="#a87e18"/>
      <path id="Path_99300" data-name="Path 99300" d="M485.117,11.2S497.87-7.455,510.672,3.388s-13.21,63.925-13.21,63.925l-2.206-6.761s21.456-44.116,11.931-53.38S486.262,16.4,486.262,16.4Z" transform="translate(-299.808 0)" fill="#d6aa30"/>
      <path id="Path_99301" data-name="Path 99301" d="M403.744,384.143l.5,13.566-12.3-.008s-.589-.768.452-1.269c.743-.357,1.379-.3,2.1-.667s.468-10.076.468-10.076Z" transform="translate(-242.119 -237.405)" fill="#fff"/>
      <path id="Path_99302" data-name="Path 99302" d="M403.771,397.53h0l-12.3-.008a.289.289,0,0,1-.23-.113,1.129,1.129,0,0,1-.2-.893,1.259,1.259,0,0,1,.756-.813,4.806,4.806,0,0,1,1.1-.35,3.989,3.989,0,0,0,.987-.315c.324-.443.424-5.345.309-9.81a.29.29,0,0,1,.239-.293l8.791-1.546a.29.29,0,0,1,.34.274l.5,13.566a.29.29,0,0,1-.29.3m-12.135-.587,11.835.008L403,384.017l-8.217,1.445c.108,4.463.082,9.729-.633,10.092a4.528,4.528,0,0,1-1.123.364,4.315,4.315,0,0,0-.979.306c-.255.123-.4.264-.443.422a.479.479,0,0,0,.034.3" transform="translate(-241.649 -236.937)" fill="#120610"/>
      <path id="Path_99303" data-name="Path 99303" d="M390.624,412.349l13.3.014-.163-4.858c-2.182.211-4.176,2.732-6.382,2.154-1.266-.324-2.382-1.662-3.6-1.605-.088,1.084-.213,1.831-.4,1.944-.778.437-1.467.38-2.27.8a1.034,1.034,0,0,0-.489,1.549" transform="translate(-241.299 -251.843)"/>
      <path id="Path_99304" data-name="Path 99304" d="M355.557,337.345l2.192,13.4-12.208,1.533s-.681-.688.289-1.316c.693-.448,1.33-.474,2-.925s-.8-10.055-.8-10.055Z" transform="translate(-213.405 -208.483)" fill="#fff"/>
      <path id="Path_99305" data-name="Path 99305" d="M345.073,352.1a.289.289,0,0,1-.206-.086,1.126,1.126,0,0,1-.31-.861,1.258,1.258,0,0,1,.648-.9,4.82,4.82,0,0,1,1.051-.484,4.009,4.009,0,0,0,.94-.437c.266-.48-.249-5.355-.921-9.771a.29.29,0,0,1,.2-.32L355,336.6a.294.294,0,0,1,.238.031.291.291,0,0,1,.133.2l2.191,13.4a.289.289,0,0,1-.249.335l-12.208,1.533-.036,0m1.811-12.382c.667,4.415,1.3,9.643.636,10.091a4.522,4.522,0,0,1-1.068.5,4.307,4.307,0,0,0-.934.426.735.735,0,0,0-.387.474.481.481,0,0,0,.071.29l11.742-1.475-2.089-12.771Z" transform="translate(-212.937 -208.015)" fill="#120610"/>
      <path id="Path_99306" data-name="Path 99306" d="M344.283,366.7l13.2-1.652-.77-4.8c-2.138.483-3.8,3.234-6.063,2.937-1.3-.163-2.572-1.35-3.771-1.142.048,1.087.018,1.843-.155,1.978-.717.531-1.408.561-2.151,1.081a1.034,1.034,0,0,0-.291,1.6" transform="translate(-212.609 -222.637)"/>
      <path id="Path_99307" data-name="Path 99307" d="M414.3,164.73a4.456,4.456,0,1,0-5.2,2.94,4.236,4.236,0,0,0,5.2-2.94" transform="translate(-250.642 -98.715)" fill="#dc926c"/>
      <path id="Path_99308" data-name="Path 99308" d="M409.705,167.613a5.239,5.239,0,0,1-1.141-.128,4.942,4.942,0,0,1-2.975-1.947,4.082,4.082,0,0,1-.693-3.279,4.744,4.744,0,0,1,9.218,2.067A4.085,4.085,0,0,1,412.087,167a4.832,4.832,0,0,1-2.382.617m-.39-8.06a3.827,3.827,0,0,0-3.852,2.834,3.51,3.51,0,0,0,.6,2.818,4.486,4.486,0,0,0,5.739,1.287,3.513,3.513,0,0,0,1.747-2.292,3.953,3.953,0,0,0-3.23-4.535,4.566,4.566,0,0,0-1-.112m4.517,4.71h0Z" transform="translate(-250.171 -98.248)" fill="#dc926c"/>
      <path id="Path_99309" data-name="Path 99309" d="M427,167.23a1.11,1.11,0,0,0-.82-1.306,1.044,1.044,0,0,0-1.268.807,1.11,1.11,0,0,0,.82,1.306A1.044,1.044,0,0,0,427,167.23" transform="translate(-262.587 -102.525)" fill="#dc926c"/>
      <path id="Path_99310" data-name="Path 99310" d="M425.513,167.888a1.364,1.364,0,0,1-.315-.037,1.4,1.4,0,0,1-1.037-1.648,1.334,1.334,0,0,1,1.619-1.029,1.4,1.4,0,0,1,1.037,1.649,1.334,1.334,0,0,1-.593.858,1.319,1.319,0,0,1-.71.207m-.047-2.172a.745.745,0,0,0-.4.117.76.76,0,0,0-.337.49.819.819,0,0,0,.6.964.746.746,0,0,0,.58-.1.758.758,0,0,0,.337-.49h0a.819.819,0,0,0-.6-.963.782.782,0,0,0-.18-.021" transform="translate(-262.118 -102.057)" fill="#dc926c"/>
      <path id="Path_99311" data-name="Path 99311" d="M414.487,180.249a10.754,10.754,0,0,1-2.336-.291c-.034.26-.146,2.883-.146,2.883a3.928,3.928,0,0,0,2.919.621c2.17-.505,1.716-1.1,1.716-1.1l-.219-2.628a6.45,6.45,0,0,1-1.934.511" transform="translate(-254.624 -111.08)" fill="#c97753"/>
      <path id="Path_99312" data-name="Path 99312" d="M413.736,183.365a4.388,4.388,0,0,1-2.372-.758.292.292,0,0,1-.119-.247c.012-.27.114-2.643.149-2.908a.289.289,0,0,1,.122-.2.277.277,0,0,1,.23-.045,10.225,10.225,0,0,0,2.243.286,6.215,6.215,0,0,0,1.839-.485.292.292,0,0,1,.269.01.289.289,0,0,1,.144.227l.215,2.569a.571.571,0,0,1,.01.422c-.154.431-.79.771-1.945,1.04a3.475,3.475,0,0,1-.784.089m-1.9-1.145a3.581,3.581,0,0,0,2.557.492c1.436-.335,1.531-.674,1.531-.676a.156.156,0,0,1-.038-.112l-.187-2.236a6.9,6.9,0,0,1-1.649.382,8.755,8.755,0,0,1-2.1-.227c-.031.527-.08,1.577-.114,2.378m2.185-2.439h0Z" transform="translate(-254.154 -110.612)" fill="#c97753"/>
      <path id="Path_99313" data-name="Path 99313" d="M409.432,156.66c.5.215-.434-.276-.712-.35-.931-.248-1.952-.462-2.908-.635-2.259-.411-7.872-2.274-4.905-5.786,1.6-1.9,2.5.819,4.013.54.989-.182,1.413-1.4,2.3-1.526,2.468-.352,2.389,1.842,4.126,2.673.858.411,2.161.057,2.35,1.37s-1.183,4.808-2.347,5.416c-.625.327.5-2.026-.044-2.552-1-.967-2.137.737-1.872.852" transform="translate(-247.243 -92)"/>
      <path id="Path_99314" data-name="Path 99314" d="M333.805,365.661a.58.58,0,0,1-.013-1.159l31.737-.7a.573.573,0,0,1,.593.566.58.58,0,0,1-.567.592l-31.737.7Z" transform="translate(-205.938 -224.835)" fill="#2d292a"/>
      <path id="Path_99315" data-name="Path 99315" d="M332.3,364.065a.58.58,0,0,1-.568-.468l-18.819-95.7a.58.58,0,1,1,1.138-.224l18.819,95.7a.579.579,0,0,1-.457.68.545.545,0,0,1-.113.011" transform="translate(-193.377 -165.135)" fill="#2d292a"/>
      <path id="Path_99316" data-name="Path 99316" d="M403.506,365.359a.58.58,0,0,1-.553-.406l-29.77-94.9a.579.579,0,0,1,1.106-.346l29.77,94.9a.578.578,0,0,1-.553.753" transform="translate(-230.615 -166.428)" fill="#2d292a"/>
      <path id="Path_99317" data-name="Path 99317" d="M322.278,311.994a.58.58,0,0,1-.013-1.159l30.929-.68a.592.592,0,0,1,.592.566.58.58,0,0,1-.567.592l-30.928.68Z" transform="translate(-198.814 -191.68)" fill="#2d292a"/>
      <path id="Path_99318" data-name="Path 99318" d="M344.969,420.03a.58.58,0,0,1-.013-1.159l28.9-.636h.013a.58.58,0,0,1,.013,1.159l-28.9.636Z" transform="translate(-212.837 -258.474)" fill="#2d292a"/>
      <path id="Path_99319" data-name="Path 99319" d="M353.341,476.681a.58.58,0,0,1-.013-1.159l31.737-.7a.558.558,0,0,1,.593.567.58.58,0,0,1-.567.592l-31.737.7Z" transform="translate(-218.011 -293.446)" fill="#2d292a"/>
      <path id="Path_99320" data-name="Path 99320" d="M343.4,296.1l10.277-2.043-1.919-21.73,5.749-4.054.12-6.418s-.164,20.5.447,24.119,3.777,25.754,3.777,25.754l11.1-.571s-4.076-23.6-3.809-26.028,1.839-21.159,1.839-21.159l-18.49-8.151s-12.237,11.222-13.119,13.911S343.4,296.1,343.4,296.1" transform="translate(-209.666 -158.101)" fill="#195b58"/>
      <path id="Path_99321" data-name="Path 99321" d="M361.391,311.551a.289.289,0,0,1-.287-.249c-.032-.221-3.171-22.174-3.776-25.746-.383-2.27-.465-10.944-.472-17.259L351.6,272l1.9,21.564a.29.29,0,0,1-.232.31L343,295.917a.289.289,0,0,1-.34-.225c-.2-.97-4.921-23.791-4.024-26.52s12.7-13.573,13.2-14.033a.29.29,0,0,1,.313-.052l18.49,8.151a.289.289,0,0,1,.171.29c-.016.188-1.576,18.761-1.84,21.166-.26,2.362,3.766,25.711,3.807,25.947a.3.3,0,0,1-.06.23.289.289,0,0,1-.212.108l-11.1.571h-.015M357.168,261.1h0a.29.29,0,0,1,.286.292c0,.2-.157,20.517.443,24.069.569,3.366,3.381,22.991,3.74,25.5l10.505-.541c-.508-2.954-4.011-23.472-3.756-25.786.248-2.261,1.648-18.894,1.821-20.946l-18.127-7.991c-4.251,3.906-12.229,11.612-12.9,13.659s2.279,17.694,3.983,25.94l9.74-1.936-1.9-21.471a.288.288,0,0,1,.121-.262l5.629-3.97.117-6.272a.29.29,0,0,1,.29-.284" transform="translate(-209.21 -157.632)" fill="#195b58"/>
      <path id="Path_99322" data-name="Path 99322" d="M370.844,178.656l-3.883,4.846,5.719,4.987-3.627,20.238s1.623.1,7.351,3.245,9.451,5.155,11.36,4.486,5.25-22.052,5.25-22.052l12.316-9.068-6.205-6.683s-3.724,1.528-5.919,2.2-2.577.191-6.778.477-15.584-2.674-15.584-2.674" transform="translate(-226.786 -110.412)" fill="#337674"/>
      <path id="Path_99323" data-name="Path 99323" d="M349.945,158.2a18.233,18.233,0,0,1-8.145-6.559c-3.4-4.922-3.191-12.908-3.191-12.908l14.712,15.249Z" transform="translate(-209.263 -85.741)" fill="#dc926c"/>
      <path id="Path_99324" data-name="Path 99324" d="M349.474,158.025a.287.287,0,0,1-.094-.016,18.347,18.347,0,0,1-8.289-6.669c-3.412-4.943-3.251-12.75-3.242-13.08a.29.29,0,0,1,.5-.193l14.711,15.249a.289.289,0,0,1,.018.382l-3.375,4.218a.289.289,0,0,1-.227.108M338.432,138.99c.045,2.055.417,8.083,3.135,12.021a18.275,18.275,0,0,0,7.812,6.378l3.084-3.854Z" transform="translate(-208.792 -85.273)" fill="#dc926c"/>
      <path id="Path_99325" data-name="Path 99325" d="M387.943,226.038a.29.29,0,0,1-.017-.579c.093-.006,9.322-.608,12.431-5.772a.29.29,0,0,1,.5.3c-3.268,5.426-12.5,6.029-12.894,6.052h-.017" transform="translate(-239.575 -135.683)" fill="#5a918d"/>
      <path id="Path_99326" data-name="Path 99326" d="M228.011,285.586a.588.588,0,0,1-.149-.019.581.581,0,0,1-.412-.709l1.526-5.733a.58.58,0,1,1,1.121.3l-1.525,5.733a.58.58,0,0,1-.56.431" transform="translate(-140.555 -172.236)" fill="#120610"/>
      <path id="Path_99327" data-name="Path 99327" d="M207.728,271.869s-5.94,2.485-16.641-8.37a22.049,22.049,0,0,1-5.967-16.769s10.312,1.481,16.058,9.244c6.4,8.646,6.549,15.895,6.549,15.895" transform="translate(-114.363 -152.482)" fill="#59906f"/>
      <path id="Path_99328" data-name="Path 99328" d="M205.334,271.87c-2.6,0-7.78-1.228-15.191-8.747a22.671,22.671,0,0,1-6.082-17.108.41.41,0,0,1,.466-.356c.1.015,10.548,1.6,16.33,9.406,6.4,8.652,6.624,15.83,6.63,16.131a.41.41,0,0,1-.253.387,5.2,5.2,0,0,1-1.9.286m-20.491-25.322a21.81,21.81,0,0,0,5.888,16c9.119,9.251,14.662,8.656,15.916,8.357-.119-1.46-.944-7.913-6.449-15.351-4.92-6.647-13.358-8.622-15.354-9.007" transform="translate(-113.711 -151.818)" fill="#59906f"/>
      <path id="Path_99329" data-name="Path 99329" d="M207.973,271.878a.41.41,0,0,1-.307-.139L185.687,246.9a.411.411,0,0,1,.615-.544l21.978,24.84a.411.411,0,0,1-.307.683" transform="translate(-114.693 -152.165)" fill="#467156"/>
      <path id="Path_99330" data-name="Path 99330" d="M203.986,291.061a.411.411,0,0,1-.1-.809l7.358-1.872a.41.41,0,1,1,.2.8l-7.358,1.873a.388.388,0,0,1-.1.013" transform="translate(-125.813 -178.214)" fill="#467156"/>
      <path id="Path_99331" data-name="Path 99331" d="M197.275,284.926a.411.411,0,0,1-.057-.817l8.024-1.141a.411.411,0,1,1,.115.813l-8.024,1.141a.385.385,0,0,1-.058,0" transform="translate(-121.665 -174.876)" fill="#467156"/>
      <path id="Path_99332" data-name="Path 99332" d="M205.755,259.67a.411.411,0,0,1-.407-.359l-.82-6.479a.411.411,0,0,1,.356-.459.405.405,0,0,1,.459.356l.82,6.479a.41.41,0,0,1-.356.459.4.4,0,0,1-.052,0" transform="translate(-126.399 -155.967)" fill="#467156"/>
      <path id="Path_99333" data-name="Path 99333" d="M470.889,93.906s1.311-4.423,1.005-4.674-2.232,3.669-2.232,3.669,1-4.374.686-4.5c-.254-.1-1.354,2.535-1.777,3.576a.445.445,0,0,0-.125-.2l-.044.1c-.007-1.1-.05-3.548-.311-3.284-.334.338-1.129,5.8-1.129,5.8s-1.336-3.162-1.637-2.349S465.86,97,465.86,97s-3.005,12.643-3.907,15.082c-2.536,6.864-9.346,11.21-9.346,11.21l5.117,5.694s7.532-5.687,9.557-10.237c1.167-2.618,2.7-18.773,3.037-19.144.837-.934,2.024-6.385,2.408-7.866s-1.839,2.171-1.839,2.171" transform="translate(-279.717 -54.63)" fill="#dc926c"/>
      <path id="Path_99334" data-name="Path 99334" d="M457.256,128.775a.29.29,0,0,1-.216-.1l-5.117-5.694a.291.291,0,0,1,.06-.438c.067-.042,6.758-4.376,9.23-11.066.853-2.308,3.653-14.025,3.882-14.986-.166-.832-.817-4.231-.51-5.054a.438.438,0,0,1,.4-.322c.138,0,.523-.014,1.366,1.75.314-2.051.766-4.676,1.063-4.978a.381.381,0,0,1,.367-.082c.194.079.378.154.429,2.646,1.271-3.024,1.5-2.931,1.775-2.819.2.08.434.176-.056,2.7.994-1.812,1.275-1.873,1.383-1.9a.416.416,0,0,1,.294.069c.134.11.364.3-.381,3.1.8-1.145.987-1.065,1.154-.994.3.127.2.507.156.69-.066.253-.154.621-.261,1.063-.711,2.949-1.526,6.159-2.212,6.924-.082.228-.387,2.658-.71,5.23-.644,5.126-1.524,12.147-2.278,13.838-2.033,4.566-9.338,10.117-9.647,10.351a.293.293,0,0,1-.175.058m-4.679-5.93,4.714,5.247c1.23-.958,7.474-5.955,9.257-9.961.719-1.614,1.63-8.872,2.233-13.675.589-4.692.692-5.365.853-5.545.646-.719,1.614-4.74,2.08-6.672.038-.16.074-.311.108-.45-.341.479-.78,1.154-1.156,1.771a.29.29,0,0,1-.525-.233c.425-1.434.835-3.017.984-3.871-.431.67-1.112,1.936-1.672,3.076a.29.29,0,0,1-.543-.192c.293-1.282.569-2.683.685-3.536-.283.562-.7,1.484-1.225,2.784a.289.289,0,0,1-.267.18h0a.29.29,0,0,1-.225-.107h0a.29.29,0,0,1-.229-.282c-.006-.956-.029-1.665-.061-2.165-.23,1.094-.547,2.971-.8,4.719a.29.29,0,0,1-.554.071,12.157,12.157,0,0,0-1.135-2.17,24.17,24.17,0,0,0,.584,4.609.29.29,0,0,1,0,.124c-.123.517-3.02,12.688-3.917,15.115-2.245,6.077-7.856,10.246-9.179,11.164" transform="translate(-279.249 -54.134)" fill="#dc926c"/>
      <path id="Path_99335" data-name="Path 99335" d="M274.96,278.56s-5.975,14.87-18.16,12.457c6.913-13.341,18.16-12.457,18.16-12.457" transform="translate(-158.706 -172.146)" fill="#59906f"/>
      <path id="Path_99336" data-name="Path 99336" d="M258.751,291.033a13.849,13.849,0,0,1-2.7-.27.411.411,0,0,1-.285-.592c6.958-13.426,18.444-12.69,18.557-12.678a.41.41,0,0,1,.349.563c-.056.14-5.348,12.978-15.926,12.978m-1.989-.98c10.026,1.57,15.689-9.147,16.9-11.746-2.351.059-11.1,1.028-16.9,11.746" transform="translate(-158.041 -171.487)" fill="#59906f"/>
      <path id="Path_99337" data-name="Path 99337" d="M222.718,215.946a.579.579,0,0,1-.395-.155l-15.81-14.7a.58.58,0,1,1,.789-.849l15.81,14.7a.58.58,0,0,1-.395,1" transform="translate(-127.513 -123.657)" fill="#2d292a"/>
      <path id="Path_99338" data-name="Path 99338" d="M213.829,94.963a13.525,13.525,0,1,1,13.587,13.407,13.5,13.5,0,0,1-13.587-13.407" transform="translate(-132.149 -50.326)" fill="#59906f"/>
      <path id="Path_99339" data-name="Path 99339" d="M226.884,108.191a13.759,13.759,0,1,1-.061-27.519h.064a13.759,13.759,0,1,1,.061,27.519Zm0-26.939h-.062a13.18,13.18,0,1,0,.059,26.359h.062a13.18,13.18,0,1,0-.059-26.359" transform="translate(-131.68 -49.856)" fill="#59906f"/>
      <path id="Path_99340" data-name="Path 99340" d="M230.82,109.507a11.37,11.37,0,1,1,11.362-11.421,11.405,11.405,0,0,1-11.362,11.421m-.1-21.838A10.469,10.469,0,1,0,241.28,98.09a10.5,10.5,0,0,0-10.56-10.421" transform="translate(-135.563 -53.623)" fill="#467156"/>
      <rect id="Rectangle_2638" data-name="Rectangle 2638" width="0.901" height="1.617" transform="translate(94.698 31.374) rotate(-0.622)" fill="#467156"/>
      <rect id="Rectangle_2639" data-name="Rectangle 2639" width="1.618" height="0.901" transform="translate(98.118 33.254) rotate(-72.67)" fill="#467156"/>
      <rect id="Rectangle_2640" data-name="Rectangle 2640" width="1.618" height="0.901" transform="translate(101.272 34.555) rotate(-54.679)" fill="#467156"/>
      <rect id="Rectangle_2641" data-name="Rectangle 2641" width="1.618" height="0.901" transform="translate(103.869 36.767) rotate(-36.71)" fill="#467156"/>
      <rect id="Rectangle_2642" data-name="Rectangle 2642" width="1.617" height="0.901" transform="translate(105.656 39.672) rotate(-18.666)" fill="#467156"/>
      <path id="Path_99341" data-name="Path 99341" d="M279.643,113.915l-.012-.9,1.619-.019.009.9Z" transform="translate(-172.815 -69.832)" fill="#467156"/>
      <rect id="Rectangle_2643" data-name="Rectangle 2643" width="0.901" height="1.618" transform="translate(106.268 47.356) rotate(-72.656)" fill="#467156"/>
      <rect id="Rectangle_2644" data-name="Rectangle 2644" width="0.901" height="1.618" transform="translate(105.012 50.868) rotate(-61.77)" fill="#467156"/>
      <rect id="Rectangle_2645" data-name="Rectangle 2645" width="0.901" height="1.618" transform="translate(102.378 53.736) rotate(-42.789)" fill="#467156"/>
      <rect id="Rectangle_2646" data-name="Rectangle 2646" width="0.901" height="1.617" transform="matrix(0.948, -0.319, 0.319, 0.948, 99.154, 55.371)" fill="#467156"/>
      <rect id="Rectangle_2647" data-name="Rectangle 2647" width="0.901" height="1.617" transform="translate(95.564 56.137) rotate(-0.623)" fill="#467156"/>
      <rect id="Rectangle_2648" data-name="Rectangle 2648" width="1.617" height="0.901" transform="translate(91.219 57.177) rotate(-72.563)" fill="#467156"/>
      <rect id="Rectangle_2649" data-name="Rectangle 2649" width="1.617" height="0.901" transform="matrix(0.58, -0.815, 0.815, 0.58, 87.505, 55.204)" fill="#467156"/>
      <rect id="Rectangle_2650" data-name="Rectangle 2650" width="1.618" height="0.901" transform="matrix(0.803, -0.596, 0.596, 0.803, 84.34, 52.028)" fill="#467156"/>
      <rect id="Rectangle_2651" data-name="Rectangle 2651" width="1.617" height="0.901" transform="translate(82.48 48.2) rotate(-18.589)" fill="#467156"/>
      <rect id="Rectangle_2652" data-name="Rectangle 2652" width="0.901" height="1.618" transform="translate(82.585 40.523) rotate(-72.63)" fill="#467156"/>
      <rect id="Rectangle_2653" data-name="Rectangle 2653" width="0.901" height="1.618" transform="matrix(0.579, -0.815, 0.815, 0.579, 84.407, 36.848)" fill="#467156"/>
      <rect id="Rectangle_2654" data-name="Rectangle 2654" width="0.901" height="1.618" transform="translate(87.185 33.995) rotate(-36.629)" fill="#467156"/>
      <rect id="Rectangle_2655" data-name="Rectangle 2655" width="0.901" height="1.618" transform="translate(90.817 32.027) rotate(-18.636)" fill="#467156"/>
      <rect id="Rectangle_2656" data-name="Rectangle 2656" width="1.618" height="0.901" transform="translate(81.888 44.188) rotate(-0.437)" fill="#467156"/>
    </g>
  </g>
  <text id="_2" data-name="₹" transform="translate(89.776 48.24)" fill="#467156" font-size="14" font-family="MyriadPro-Regular, Myriad Pro"><tspan x="0" y="0">₹</tspan></text>
  <g id="Group_12856" data-name="Group 12856">
    <g id="Group_12855" data-name="Group 12855" clip-path="url(#clip-path)">
      <path id="Path_99342" data-name="Path 99342" d="M55.93,445.461a.312.312,0,0,1-.132-.04c-.173-.1-17.476-10.048-26.541-21.935a107.667,107.667,0,0,1-13.685-23.943.311.311,0,1,1,.581-.22,107.037,107.037,0,0,0,13.6,23.786c8.987,11.786,26.182,21.674,26.355,21.773a.311.311,0,0,1-.176.581" transform="translate(-9.611 -246.662)" fill="#1f9b69"/>
      <path id="Path_99343" data-name="Path 99343" d="M70.732,495.917s-15.632-7.549-15.08-2.56,15.08,2.56,15.08,2.56" transform="translate(-34.385 -303.847)" fill="#1f9b69"/>
      <path id="Path_99344" data-name="Path 99344" d="M90.38,478.475s-5.291-13.742-1.562-13.97,1.562,13.97,1.562,13.97" transform="translate(-54.068 -287.068)" fill="#1f9b69"/>
      <path id="Path_99345" data-name="Path 99345" d="M39.632,469.534s-14.727,2.91-14.6-2.279,14.6,2.279,14.6,2.279" transform="translate(-15.466 -287.636)" fill="#1f9b69"/>
      <path id="Path_99346" data-name="Path 99346" d="M59.451,451.844s-4.6-15.3-.145-13.83.145,13.83.145,13.83" transform="translate(-35.451 -270.636)" fill="#1f9b69"/>
      <path id="Path_99347" data-name="Path 99347" d="M15.191,437.707S-.454,439.513.7,434.839s14.488,2.869,14.488,2.869" transform="translate(-0.397 -267.791)" fill="#1f9b69"/>
      <path id="Path_99348" data-name="Path 99348" d="M38.02,426.376S35.528,414.1,39.186,415.09s-1.167,11.285-1.167,11.285" transform="translate(-22.985 -256.496)" fill="#1f9b69"/>
      <path id="Path_99349" data-name="Path 99349" d="M9.369,408.572S-.783,406.119.857,403.991s8.512,4.581,8.512,4.581" transform="translate(-0.419 -249.414)" fill="#1f9b69"/>
      <path id="Path_99350" data-name="Path 99350" d="M23.245,402.018s-1.678-10.019.738-9.188-.738,9.188-.738,9.188" transform="translate(-14.015 -242.744)" fill="#1f9b69"/>
      <path id="Path_99351" data-name="Path 99351" d="M6.773,380.4s-10.01-13.5-5.69-13.935S6.773,380.4,6.773,380.4" transform="translate(0 -226.473)" fill="#1f9b69"/>
      <path id="Path_99352" data-name="Path 99352" d="M270.01,65.1S259.03,58.494,258,63.858C257.249,67.75,270.01,65.1,270.01,65.1" transform="translate(-159.427 -38.167)" fill="#83fcf6"/>
      <path id="Path_99353" data-name="Path 99353" d="M222.344,63.518s-11.164-.408-10.033,4.01c.983,3.84,10.033-4.01,10.033-4.01" transform="translate(-131.161 -39.249)" fill="#83fcf6"/>
      <path id="Path_99354" data-name="Path 99354" d="M213.216,68.4a2.022,2.022,0,0,1-.6-.085,1.545,1.545,0,0,1-1.052-1.189,2.3,2.3,0,0,1,.426-2.11c2.03-2.52,9.577-2.271,9.9-2.261a.29.29,0,0,1,.179.509c-.645.56-6.009,5.137-8.847,5.137m7.875-5.075c-1.976,0-7.16.2-8.655,2.054a1.721,1.721,0,0,0-.316,1.6.987.987,0,0,0,.663.78c1.751.552,6.146-2.657,8.307-4.436" transform="translate(-130.691 -38.778)" fill="#83fcf6"/>
      <path id="Path_99355" data-name="Path 99355" d="M191.948,99.419s-10.626,3.446-8.048,7.208c2.24,3.27,8.048-7.208,8.048-7.208" transform="translate(-113.403 -61.442)" fill="#83fcf6"/>
      <path id="Path_99356" data-name="Path 99356" d="M184.507,107.078a1.552,1.552,0,0,1-1.316-.759,2.292,2.292,0,0,1-.324-2.128c1.043-3.063,8.217-5.42,8.522-5.52a.286.286,0,0,1,.313.091.29.29,0,0,1,.03.325c-.446.8-4.433,7.859-7.145,7.988l-.079,0m6.333-7.6c-1.854.683-6.657,2.645-7.425,4.9a1.722,1.722,0,0,0,.254,1.614.991.991,0,0,0,.89.5c1.835-.086,4.861-4.6,6.281-7.017" transform="translate(-112.933 -60.971)" fill="#83fcf6"/>
      <path id="Path_99357" data-name="Path 99357" d="M314.209,231.673s-3.388,10.645,1.171,10.741c3.963.084-1.171-10.741-1.171-10.741" transform="translate(-193.437 -143.177)" fill="#83fcf6"/>
      <path id="Path_99358" data-name="Path 99358" d="M314.959,242.235h-.053a2.3,2.3,0,0,1-1.918-.976c-1.882-2.632.38-9.837.477-10.143a.291.291,0,0,1,.257-.2.288.288,0,0,1,.282.165c.394.83,3.807,8.181,2.331,10.46a1.533,1.533,0,0,1-1.376.694m-1.157-10.2c-.525,1.9-1.728,6.951-.342,8.888a1.719,1.719,0,0,0,1.459.733,1,1,0,0,0,.929-.429c1-1.542-.911-6.633-2.046-9.193" transform="translate(-192.97 -142.708)" fill="#83fcf6"/>
      <path id="Path_99359" data-name="Path 99359" d="M267.428,148.6s-8.182,7.606-4.258,9.93c3.411,2.02,4.258-9.93,4.258-9.93" transform="translate(-161.984 -91.837)" fill="#83fcf6"/>
      <path id="Path_99360" data-name="Path 99360" d="M263.454,158.584a1.765,1.765,0,0,1-.9-.272,2.294,2.294,0,0,1-1.191-1.793c-.346-3.217,5.164-8.38,5.4-8.6a.29.29,0,0,1,.487.233c-.065.917-.7,9-3.11,10.256a1.465,1.465,0,0,1-.686.175m3.152-9.7c-1.393,1.4-4.921,5.205-4.666,7.573a1.719,1.719,0,0,0,.91,1.356.99.99,0,0,0,1.021.083c1.627-.853,2.466-6.224,2.735-9.011" transform="translate(-161.516 -91.369)" fill="#83fcf6"/>
      <path id="Path_99361" data-name="Path 99361" d="M229.624,207.544s-8.182,7.606-4.258,9.93c3.411,2.02,4.258-9.93,4.258-9.93" transform="translate(-138.621 -128.265)" fill="#83fcf6"/>
      <path id="Path_99362" data-name="Path 99362" d="M267.21,95.222s-11.1-1.248-10.306,3.242c.691,3.9,10.306-3.242,10.306-3.242" transform="translate(-158.744 -58.75)" fill="#83fcf6"/>
      <path id="Path_99363" data-name="Path 99363" d="M257.922,99.445a2.193,2.193,0,0,1-.814-.138,1.544,1.544,0,0,1-.959-1.265,2.293,2.293,0,0,1,.584-2.072c2.215-2.359,9.722-1.544,10.04-1.509a.29.29,0,0,1,.141.521c-.668.5-6.1,4.464-8.991,4.464m5.593-4.565c-2.308,0-5.214.265-6.36,1.486a1.722,1.722,0,0,0-.435,1.574.99.99,0,0,0,.6.828c1.7.677,6.328-2.187,8.618-3.8-.584-.043-1.452-.09-2.424-.09" transform="translate(-158.275 -58.277)" fill="#83fcf6"/>
      <path id="Path_99364" data-name="Path 99364" d="M223.355,138.281s-9.69,5.559-6.393,8.71c2.865,2.739,6.393-8.71,6.393-8.71" transform="translate(-133.662 -85.459)" fill="#83fcf6"/>
      <path id="Path_99365" data-name="Path 99365" d="M150.378,202.8s-9.69,5.559-6.393,8.71c2.865,2.739,6.393-8.71,6.393-8.71" transform="translate(-88.562 -125.335)" fill="#83fcf6"/>
      <path id="Path_99366" data-name="Path 99366" d="M274.906,223.456s-6,9.423-1.618,10.683c3.81,1.1,1.618-10.683,1.618-10.683" transform="translate(-167.906 -138.099)" fill="#83fcf6"/>
      <path id="Path_99367" data-name="Path 99367" d="M187.147,267.65s-7.67,8.122-3.6,10.186c3.535,1.794,3.6-10.186,3.6-10.186" transform="translate(-112.697 -165.411)" fill="#83fcf6"/>
      <rect id="Rectangle_2658" data-name="Rectangle 2658" width="18.173" height="3.16" transform="translate(54.052 179.935)" fill="#cee0dc"/>
      <path id="Path_99368" data-name="Path 99368" d="M159.539,474.158H141.366a.085.085,0,0,1-.085-.085v-3.16a.085.085,0,0,1,.085-.085h18.173a.085.085,0,0,1,.085.085v3.16a.085.085,0,0,1-.085.085m-18.088-.17h18V471h-18Z" transform="translate(-87.313 -290.977)" fill="#cee0dc"/>
      <rect id="Rectangle_2659" data-name="Rectangle 2659" width="0.536" height="2.874" transform="translate(54.498 180.078)" fill="#e3e8e7"/>
      <rect id="Rectangle_2660" data-name="Rectangle 2660" width="0.536" height="2.874" transform="translate(55.481 180.078)" fill="#e3e8e7"/>
      <rect id="Rectangle_2661" data-name="Rectangle 2661" width="0.536" height="2.874" transform="translate(56.642 180.078)" fill="#e3e8e7"/>
      <rect id="Rectangle_2662" data-name="Rectangle 2662" width="0.536" height="2.874" transform="translate(57.625 180.078)" fill="#e3e8e7"/>
      <rect id="Rectangle_2663" data-name="Rectangle 2663" width="0.536" height="2.874" transform="translate(58.734 180.078)" fill="#e3e8e7"/>
      <rect id="Rectangle_2664" data-name="Rectangle 2664" width="0.536" height="2.874" transform="translate(59.717 180.078)" fill="#e3e8e7"/>
      <rect id="Rectangle_2665" data-name="Rectangle 2665" width="0.536" height="2.874" transform="translate(60.795 180.078)" fill="#e3e8e7"/>
      <rect id="Rectangle_2666" data-name="Rectangle 2666" width="0.536" height="2.874" transform="translate(61.778 180.078)" fill="#e3e8e7"/>
      <rect id="Rectangle_2667" data-name="Rectangle 2667" width="0.536" height="2.874" transform="translate(62.887 180.078)" fill="#e3e8e7"/>
      <rect id="Rectangle_2668" data-name="Rectangle 2668" width="0.536" height="2.874" transform="translate(63.87 180.078)" fill="#e3e8e7"/>
      <rect id="Rectangle_2669" data-name="Rectangle 2669" width="0.536" height="2.874" transform="translate(65.067 180.078)" fill="#e3e8e7"/>
      <rect id="Rectangle_2670" data-name="Rectangle 2670" width="0.536" height="2.874" transform="translate(66.05 180.078)" fill="#e3e8e7"/>
      <rect id="Rectangle_2671" data-name="Rectangle 2671" width="0.536" height="2.874" transform="translate(67.158 180.078)" fill="#e3e8e7"/>
      <rect id="Rectangle_2672" data-name="Rectangle 2672" width="0.536" height="2.874" transform="translate(68.141 180.078)" fill="#e3e8e7"/>
      <rect id="Rectangle_2673" data-name="Rectangle 2673" width="0.536" height="2.874" transform="translate(69.152 180.078)" fill="#e3e8e7"/>
      <rect id="Rectangle_2674" data-name="Rectangle 2674" width="0.536" height="2.874" transform="translate(70.261 180.078)" fill="#e3e8e7"/>
      <rect id="Rectangle_2675" data-name="Rectangle 2675" width="0.536" height="2.874" transform="translate(71.244 180.078)" fill="#e3e8e7"/>
      <rect id="Rectangle_2676" data-name="Rectangle 2676" width="18.173" height="3.16" transform="translate(49.7 183.279)" fill="#cee0dc"/>
      <path id="Path_99369" data-name="Path 99369" d="M148.144,482.909H129.972a.085.085,0,0,1-.085-.085v-3.16a.085.085,0,0,1,.085-.085h18.173a.085.085,0,0,1,.085.085v3.16a.085.085,0,0,1-.085.085m-18.088-.17h18v-2.991h-18Z" transform="translate(-80.272 -296.386)" fill="#cee0dc"/>
      <rect id="Rectangle_2677" data-name="Rectangle 2677" width="0.536" height="2.874" transform="translate(50.145 183.421)" fill="#e3e8e7"/>
      <rect id="Rectangle_2678" data-name="Rectangle 2678" width="0.536" height="2.874" transform="translate(51.128 183.421)" fill="#e3e8e7"/>
      <rect id="Rectangle_2679" data-name="Rectangle 2679" width="0.536" height="2.874" transform="translate(52.29 183.421)" fill="#e3e8e7"/>
      <rect id="Rectangle_2680" data-name="Rectangle 2680" width="0.536" height="2.874" transform="translate(53.272 183.421)" fill="#e3e8e7"/>
      <rect id="Rectangle_2681" data-name="Rectangle 2681" width="0.536" height="2.874" transform="translate(54.381 183.421)" fill="#e3e8e7"/>
      <rect id="Rectangle_2682" data-name="Rectangle 2682" width="0.536" height="2.874" transform="translate(55.364 183.421)" fill="#e3e8e7"/>
      <rect id="Rectangle_2683" data-name="Rectangle 2683" width="0.536" height="2.874" transform="translate(56.443 183.421)" fill="#e3e8e7"/>
      <rect id="Rectangle_2684" data-name="Rectangle 2684" width="0.536" height="2.874" transform="translate(57.425 183.421)" fill="#e3e8e7"/>
      <rect id="Rectangle_2685" data-name="Rectangle 2685" width="0.536" height="2.874" transform="translate(58.534 183.421)" fill="#e3e8e7"/>
      <rect id="Rectangle_2686" data-name="Rectangle 2686" width="0.536" height="2.874" transform="translate(59.517 183.421)" fill="#e3e8e7"/>
      <rect id="Rectangle_2687" data-name="Rectangle 2687" width="0.536" height="2.874" transform="translate(60.714 183.421)" fill="#e3e8e7"/>
      <rect id="Rectangle_2688" data-name="Rectangle 2688" width="0.536" height="2.874" transform="translate(61.697 183.421)" fill="#e3e8e7"/>
      <rect id="Rectangle_2689" data-name="Rectangle 2689" width="0.536" height="2.874" transform="translate(62.806 183.421)" fill="#e3e8e7"/>
      <rect id="Rectangle_2690" data-name="Rectangle 2690" width="0.536" height="2.874" transform="translate(63.789 183.421)" fill="#e3e8e7"/>
      <rect id="Rectangle_2691" data-name="Rectangle 2691" width="0.536" height="2.874" transform="translate(64.8 183.421)" fill="#e3e8e7"/>
      <rect id="Rectangle_2692" data-name="Rectangle 2692" width="0.536" height="2.874" transform="translate(65.909 183.421)" fill="#e3e8e7"/>
      <rect id="Rectangle_2693" data-name="Rectangle 2693" width="0.536" height="2.874" transform="translate(66.891 183.421)" fill="#e3e8e7"/>
      <rect id="Rectangle_2694" data-name="Rectangle 2694" width="18.173" height="3.16" transform="translate(55.929 186.549)" fill="#cee0dc"/>
      <path id="Path_99370" data-name="Path 99370" d="M164.45,491.473H146.278a.085.085,0,0,1-.085-.085v-3.16a.085.085,0,0,1,.085-.085H164.45a.085.085,0,0,1,.085.085v3.16a.085.085,0,0,1-.085.085m-18.088-.17h18v-2.991h-18Z" transform="translate(-90.349 -301.678)" fill="#cee0dc"/>
      <rect id="Rectangle_2695" data-name="Rectangle 2695" width="0.536" height="2.874" transform="translate(56.375 186.692)" fill="#e3e8e7"/>
      <rect id="Rectangle_2696" data-name="Rectangle 2696" width="0.536" height="2.874" transform="translate(57.357 186.692)" fill="#e3e8e7"/>
      <rect id="Rectangle_2697" data-name="Rectangle 2697" width="0.536" height="2.874" transform="translate(58.519 186.692)" fill="#e3e8e7"/>
      <rect id="Rectangle_2698" data-name="Rectangle 2698" width="0.536" height="2.874" transform="translate(59.501 186.692)" fill="#e3e8e7"/>
      <rect id="Rectangle_2699" data-name="Rectangle 2699" width="0.536" height="2.874" transform="translate(60.61 186.692)" fill="#e3e8e7"/>
      <rect id="Rectangle_2700" data-name="Rectangle 2700" width="0.536" height="2.874" transform="translate(61.593 186.692)" fill="#e3e8e7"/>
      <rect id="Rectangle_2701" data-name="Rectangle 2701" width="0.536" height="2.874" transform="translate(62.672 186.692)" fill="#e3e8e7"/>
      <rect id="Rectangle_2702" data-name="Rectangle 2702" width="0.536" height="2.874" transform="translate(63.654 186.692)" fill="#e3e8e7"/>
      <rect id="Rectangle_2703" data-name="Rectangle 2703" width="0.536" height="2.874" transform="translate(64.763 186.692)" fill="#e3e8e7"/>
      <rect id="Rectangle_2704" data-name="Rectangle 2704" width="0.536" height="2.874" transform="translate(65.746 186.692)" fill="#e3e8e7"/>
      <rect id="Rectangle_2705" data-name="Rectangle 2705" width="0.536" height="2.874" transform="translate(66.943 186.692)" fill="#e3e8e7"/>
      <rect id="Rectangle_2706" data-name="Rectangle 2706" width="0.536" height="2.874" transform="translate(67.926 186.692)" fill="#e3e8e7"/>
      <rect id="Rectangle_2707" data-name="Rectangle 2707" width="0.536" height="2.874" transform="translate(69.034 186.692)" fill="#e3e8e7"/>
      <rect id="Rectangle_2708" data-name="Rectangle 2708" width="0.536" height="2.874" transform="translate(70.017 186.692)" fill="#e3e8e7"/>
      <rect id="Rectangle_2709" data-name="Rectangle 2709" width="0.536" height="2.874" transform="translate(71.029 186.692)" fill="#e3e8e7"/>
      <rect id="Rectangle_2710" data-name="Rectangle 2710" width="0.536" height="2.874" transform="translate(72.137 186.692)" fill="#e3e8e7"/>
      <rect id="Rectangle_2711" data-name="Rectangle 2711" width="0.536" height="2.874" transform="translate(73.12 186.692)" fill="#e3e8e7"/>
      <rect id="Rectangle_2712" data-name="Rectangle 2712" width="18.173" height="3.16" transform="translate(52.516 189.82)" fill="#cee0dc"/>
      <path id="Path_99371" data-name="Path 99371" d="M155.517,500.036H137.345a.085.085,0,0,1-.085-.085v-3.16a.085.085,0,0,1,.085-.085h18.173a.085.085,0,0,1,.085.085v3.16a.085.085,0,0,1-.085.085m-18.088-.17h18v-2.991h-18Z" transform="translate(-84.828 -306.97)" fill="#cee0dc"/>
      <rect id="Rectangle_2713" data-name="Rectangle 2713" width="0.536" height="2.874" transform="translate(52.962 189.963)" fill="#e3e8e7"/>
      <rect id="Rectangle_2714" data-name="Rectangle 2714" width="0.536" height="2.874" transform="translate(53.945 189.963)" fill="#e3e8e7"/>
      <rect id="Rectangle_2715" data-name="Rectangle 2715" width="0.536" height="2.874" transform="translate(55.106 189.963)" fill="#e3e8e7"/>
      <rect id="Rectangle_2716" data-name="Rectangle 2716" width="0.536" height="2.874" transform="translate(56.089 189.963)" fill="#e3e8e7"/>
      <rect id="Rectangle_2717" data-name="Rectangle 2717" width="0.536" height="2.874" transform="translate(57.198 189.963)" fill="#e3e8e7"/>
      <rect id="Rectangle_2718" data-name="Rectangle 2718" width="0.536" height="2.874" transform="translate(58.181 189.963)" fill="#e3e8e7"/>
      <rect id="Rectangle_2719" data-name="Rectangle 2719" width="0.536" height="2.874" transform="translate(59.259 189.963)" fill="#e3e8e7"/>
      <rect id="Rectangle_2720" data-name="Rectangle 2720" width="0.536" height="2.874" transform="translate(60.242 189.963)" fill="#e3e8e7"/>
      <rect id="Rectangle_2721" data-name="Rectangle 2721" width="0.536" height="2.874" transform="translate(61.351 189.963)" fill="#e3e8e7"/>
      <rect id="Rectangle_2722" data-name="Rectangle 2722" width="0.536" height="2.874" transform="translate(62.333 189.963)" fill="#e3e8e7"/>
      <rect id="Rectangle_2723" data-name="Rectangle 2723" width="0.536" height="2.874" transform="translate(63.531 189.963)" fill="#e3e8e7"/>
      <rect id="Rectangle_2724" data-name="Rectangle 2724" width="0.536" height="2.874" transform="translate(64.514 189.963)" fill="#e3e8e7"/>
      <rect id="Rectangle_2725" data-name="Rectangle 2725" width="0.536" height="2.874" transform="translate(65.622 189.963)" fill="#e3e8e7"/>
      <rect id="Rectangle_2726" data-name="Rectangle 2726" width="0.536" height="2.874" transform="translate(66.605 189.963)" fill="#e3e8e7"/>
      <rect id="Rectangle_2727" data-name="Rectangle 2727" width="0.536" height="2.874" transform="translate(67.616 189.963)" fill="#e3e8e7"/>
      <rect id="Rectangle_2728" data-name="Rectangle 2728" width="0.536" height="2.874" transform="translate(68.725 189.963)" fill="#e3e8e7"/>
      <rect id="Rectangle_2729" data-name="Rectangle 2729" width="0.536" height="2.874" transform="translate(69.708 189.963)" fill="#e3e8e7"/>
      <rect id="Rectangle_2730" data-name="Rectangle 2730" width="18.173" height="3.16" transform="translate(53.853 192.883)" fill="#cee0dc"/>
      <path id="Path_99372" data-name="Path 99372" d="M159.016,508.053H140.844a.085.085,0,0,1-.085-.085v-3.16a.085.085,0,0,1,.085-.085h18.173a.085.085,0,0,1,.085.085v3.16a.085.085,0,0,1-.085.085m-18.088-.17h18v-2.991h-18Z" transform="translate(-86.991 -311.925)" fill="#cee0dc"/>
      <rect id="Rectangle_2731" data-name="Rectangle 2731" width="0.536" height="2.874" transform="translate(54.298 193.026)" fill="#e3e8e7"/>
      <rect id="Rectangle_2732" data-name="Rectangle 2732" width="0.536" height="2.874" transform="translate(55.281 193.026)" fill="#e3e8e7"/>
      <rect id="Rectangle_2733" data-name="Rectangle 2733" width="0.536" height="2.874" transform="translate(56.443 193.026)" fill="#e3e8e7"/>
      <rect id="Rectangle_2734" data-name="Rectangle 2734" width="0.536" height="2.874" transform="translate(57.425 193.026)" fill="#e3e8e7"/>
      <rect id="Rectangle_2735" data-name="Rectangle 2735" width="0.536" height="2.874" transform="translate(58.534 193.026)" fill="#e3e8e7"/>
      <rect id="Rectangle_2736" data-name="Rectangle 2736" width="0.536" height="2.874" transform="translate(59.517 193.026)" fill="#e3e8e7"/>
      <rect id="Rectangle_2737" data-name="Rectangle 2737" width="0.536" height="2.874" transform="translate(60.595 193.026)" fill="#e3e8e7"/>
      <rect id="Rectangle_2738" data-name="Rectangle 2738" width="0.536" height="2.874" transform="translate(61.578 193.026)" fill="#e3e8e7"/>
      <rect id="Rectangle_2739" data-name="Rectangle 2739" width="0.536" height="2.874" transform="translate(62.687 193.026)" fill="#e3e8e7"/>
      <rect id="Rectangle_2740" data-name="Rectangle 2740" width="0.536" height="2.874" transform="translate(63.67 193.026)" fill="#e3e8e7"/>
      <rect id="Rectangle_2741" data-name="Rectangle 2741" width="0.536" height="2.874" transform="translate(64.867 193.026)" fill="#e3e8e7"/>
      <rect id="Rectangle_2742" data-name="Rectangle 2742" width="0.536" height="2.874" transform="translate(65.85 193.026)" fill="#e3e8e7"/>
      <rect id="Rectangle_2743" data-name="Rectangle 2743" width="0.536" height="2.874" transform="translate(66.959 193.026)" fill="#e3e8e7"/>
      <rect id="Rectangle_2744" data-name="Rectangle 2744" width="0.536" height="2.874" transform="translate(67.941 193.026)" fill="#e3e8e7"/>
      <rect id="Rectangle_2745" data-name="Rectangle 2745" width="0.536" height="2.874" transform="translate(68.953 193.026)" fill="#e3e8e7"/>
      <rect id="Rectangle_2746" data-name="Rectangle 2746" width="0.536" height="2.874" transform="translate(70.062 193.026)" fill="#e3e8e7"/>
      <rect id="Rectangle_2747" data-name="Rectangle 2747" width="0.536" height="2.874" transform="translate(71.044 193.026)" fill="#e3e8e7"/>
      <rect id="Rectangle_2748" data-name="Rectangle 2748" width="18.173" height="3.16" transform="translate(52.879 196.165)" fill="#cee0dc"/>
      <path id="Path_99373" data-name="Path 99373" d="M156.465,516.645H138.293a.085.085,0,0,1-.085-.085V513.4a.085.085,0,0,1,.085-.085h18.173a.085.085,0,0,1,.085.085v3.16a.085.085,0,0,1-.085.085m-18.088-.17h18v-2.991h-18Z" transform="translate(-85.414 -317.235)" fill="#cee0dc"/>
      <rect id="Rectangle_2749" data-name="Rectangle 2749" width="0.536" height="2.874" transform="translate(53.324 196.308)" fill="#e3e8e7"/>
      <rect id="Rectangle_2750" data-name="Rectangle 2750" width="0.536" height="2.874" transform="translate(54.307 196.308)" fill="#e3e8e7"/>
      <rect id="Rectangle_2751" data-name="Rectangle 2751" width="0.536" height="2.874" transform="translate(55.468 196.308)" fill="#e3e8e7"/>
      <rect id="Rectangle_2752" data-name="Rectangle 2752" width="0.536" height="2.874" transform="translate(56.451 196.308)" fill="#e3e8e7"/>
      <rect id="Rectangle_2753" data-name="Rectangle 2753" width="0.536" height="2.874" transform="translate(57.56 196.308)" fill="#e3e8e7"/>
      <rect id="Rectangle_2754" data-name="Rectangle 2754" width="0.536" height="2.874" transform="translate(58.543 196.308)" fill="#e3e8e7"/>
      <rect id="Rectangle_2755" data-name="Rectangle 2755" width="0.536" height="2.874" transform="translate(59.621 196.308)" fill="#e3e8e7"/>
      <rect id="Rectangle_2756" data-name="Rectangle 2756" width="0.536" height="2.874" transform="translate(60.604 196.308)" fill="#e3e8e7"/>
      <rect id="Rectangle_2757" data-name="Rectangle 2757" width="0.536" height="2.874" transform="translate(61.713 196.308)" fill="#e3e8e7"/>
      <rect id="Rectangle_2758" data-name="Rectangle 2758" width="0.536" height="2.874" transform="translate(62.696 196.308)" fill="#e3e8e7"/>
      <rect id="Rectangle_2759" data-name="Rectangle 2759" width="0.536" height="2.874" transform="translate(63.893 196.308)" fill="#e3e8e7"/>
      <rect id="Rectangle_2760" data-name="Rectangle 2760" width="0.536" height="2.874" transform="translate(64.876 196.308)" fill="#e3e8e7"/>
      <rect id="Rectangle_2761" data-name="Rectangle 2761" width="0.536" height="2.874" transform="translate(65.984 196.308)" fill="#e3e8e7"/>
      <rect id="Rectangle_2762" data-name="Rectangle 2762" width="0.536" height="2.874" transform="translate(66.967 196.308)" fill="#e3e8e7"/>
      <rect id="Rectangle_2763" data-name="Rectangle 2763" width="0.536" height="2.874" transform="translate(67.979 196.308)" fill="#e3e8e7"/>
      <rect id="Rectangle_2764" data-name="Rectangle 2764" width="0.536" height="2.874" transform="translate(69.087 196.308)" fill="#e3e8e7"/>
      <rect id="Rectangle_2765" data-name="Rectangle 2765" width="0.536" height="2.874" transform="translate(70.07 196.308)" fill="#e3e8e7"/>
      <path id="Path_99374" data-name="Path 99374" d="M455.3,387.045c-5.1,12.993-6.739,24.5-3.666,25.709s9.7-8.349,14.794-21.342A60.027,60.027,0,0,0,470.1,365.7,60.025,60.025,0,0,0,455.3,387.045" transform="translate(-278.16 -226.009)" fill="#59906f"/>
      <path id="Path_99375" data-name="Path 99375" d="M451.491,412.6a1.949,1.949,0,0,1-.713-.133c-3.862-1.516-1.113-14.651,3.434-26.241a61.01,61.01,0,0,1,14.909-21.5.411.411,0,0,1,.677.266,61.011,61.011,0,0,1-3.692,25.9,81.76,81.76,0,0,1-8.2,16.079c-1.842,2.657-4.36,5.628-6.413,5.628m3.1-26.224.383.15c-5.352,13.639-6.35,24.215-3.9,25.176,1.254.5,3.553-1.452,6.151-5.2A81,81,0,0,0,465.34,390.6a60.469,60.469,0,0,0,3.709-24.691,60.439,60.439,0,0,0-14.071,20.625Z" transform="translate(-277.452 -225.344)" fill="#59906f"/>
      <path id="Path_99376" data-name="Path 99376" d="M472.6,365.7l-18.46,47.051Z" transform="translate(-280.667 -226.008)" fill="#467156"/>
      <path id="Path_99377" data-name="Path 99377" d="M453.479,412.5a.411.411,0,0,1-.383-.562l18.461-47.05a.411.411,0,1,1,.765.3l-18.46,47.051a.411.411,0,0,1-.383.261" transform="translate(-280.002 -225.345)" fill="#467156"/>
      <path id="Path_99378" data-name="Path 99378" d="M494.777,393.975l-4.517,1.089Z" transform="translate(-302.987 -243.481)" fill="#467156"/>
      <path id="Path_99379" data-name="Path 99379" d="M489.595,394.81a.411.411,0,0,1-.1-.81l4.517-1.089a.411.411,0,0,1,.192.8l-4.517,1.089a.4.4,0,0,1-.1.012" transform="translate(-302.322 -242.817)" fill="#467156"/>
      <path id="Path_99380" data-name="Path 99380" d="M488.877,412.907l-6.259,1.3Z" transform="translate(-298.264 -255.182)" fill="#467156"/>
      <path id="Path_99381" data-name="Path 99381" d="M481.952,413.95a.411.411,0,0,1-.083-.813l6.259-1.3a.411.411,0,0,1,.167.8l-6.26,1.3a.411.411,0,0,1-.084.008" transform="translate(-297.599 -254.517)" fill="#467156"/>
      <path id="Path_99382" data-name="Path 99382" d="M482.655,430.4l-6.949,1.346Z" transform="translate(-293.992 -265.99)" fill="#467156"/>
      <path id="Path_99383" data-name="Path 99383" d="M475.04,431.488a.411.411,0,0,1-.078-.814l6.949-1.346a.41.41,0,1,1,.156.806l-6.949,1.346a.4.4,0,0,1-.079.008" transform="translate(-293.327 -265.325)" fill="#467156"/>
      <path id="Path_99384" data-name="Path 99384" d="M474.775,449.5l-6.8,1.573Z" transform="translate(-289.216 -277.798)" fill="#467156"/>
      <path id="Path_99385" data-name="Path 99385" d="M467.311,450.82a.411.411,0,0,1-.092-.811l6.8-1.574a.411.411,0,0,1,.186.8l-6.8,1.573a.438.438,0,0,1-.094.01" transform="translate(-288.551 -277.133)" fill="#467156"/>
      <path id="Path_99386" data-name="Path 99386" d="M467.24,466.942l-6.014,1.484Z" transform="translate(-285.043 -288.576)" fill="#467156"/>
      <path id="Path_99387" data-name="Path 99387" d="M460.56,468.175a.411.411,0,0,1-.1-.809l6.014-1.484a.415.415,0,0,1,.5.3.41.41,0,0,1-.3.5l-6.014,1.484a.418.418,0,0,1-.1.013" transform="translate(-284.378 -287.914)" fill="#467156"/>
      <path id="Path_99388" data-name="Path 99388" d="M483.588,386.616l2.606,3.923Z" transform="translate(-298.863 -238.933)" fill="#467156"/>
      <path id="Path_99389" data-name="Path 99389" d="M485.53,390.286a.411.411,0,0,1-.343-.183l-2.606-3.923a.411.411,0,0,1,.684-.455l2.606,3.923a.411.411,0,0,1-.341.639" transform="translate(-298.199 -238.27)" fill="#467156"/>
      <path id="Path_99390" data-name="Path 99390" d="M472.962,402.585l3.746,5.263Z" transform="translate(-292.296 -248.802)" fill="#467156"/>
      <path id="Path_99391" data-name="Path 99391" d="M476.044,407.593a.41.41,0,0,1-.335-.173l-3.747-5.263a.411.411,0,1,1,.669-.477l3.747,5.263a.411.411,0,0,1-.334.649" transform="translate(-291.631 -248.137)" fill="#467156"/>
      <path id="Path_99392" data-name="Path 99392" d="M464.916,419.026l4.179,5.712Z" transform="translate(-287.324 -258.963)" fill="#467156"/>
      <path id="Path_99393" data-name="Path 99393" d="M468.431,424.484a.41.41,0,0,1-.332-.169L463.92,418.6a.411.411,0,0,1,.663-.485l4.179,5.713a.411.411,0,0,1-.331.653" transform="translate(-286.659 -258.298)" fill="#467156"/>
      <path id="Path_99394" data-name="Path 99394" d="M457.882,438.559l3.914,5.775Z" transform="translate(-282.977 -271.035)" fill="#467156"/>
      <path id="Path_99395" data-name="Path 99395" d="M461.133,444.081a.413.413,0,0,1-.341-.18l-3.914-5.775a.411.411,0,0,1,.68-.461l3.914,5.775a.41.41,0,0,1-.11.57.4.4,0,0,1-.23.071" transform="translate(-282.312 -270.371)" fill="#467156"/>
      <path id="Path_99396" data-name="Path 99396" d="M452.477,457.332l3.4,5.178Z" transform="translate(-279.636 -282.637)" fill="#467156"/>
      <path id="Path_99397" data-name="Path 99397" d="M455.212,462.255a.412.412,0,0,1-.344-.186l-3.4-5.178a.411.411,0,0,1,.687-.451l3.4,5.178a.41.41,0,0,1-.118.568.4.4,0,0,1-.225.068" transform="translate(-278.971 -281.971)" fill="#467156"/>
      <path id="Path_99398" data-name="Path 99398" d="M466.974,460.82c-5.926,6.44-9.3,12.981-7.528,14.608s8.006-2.275,13.932-8.715a33.665,33.665,0,0,0,7.528-14.608,33.665,33.665,0,0,0-13.932,8.715" transform="translate(-283.652 -279.406)" fill="#59906f"/>
      <path id="Path_99399" data-name="Path 99399" d="M459.89,475.547a1.979,1.979,0,0,1-1.388-.48c-1.287-1.184-.28-3.91.791-5.989a44.68,44.68,0,0,1,6.712-9.2,34.405,34.405,0,0,1,14.122-8.832.417.417,0,0,1,.39.093.409.409,0,0,1,.125.382,34.417,34.417,0,0,1-7.628,14.807,44.622,44.622,0,0,1-8.61,7.453,9.893,9.893,0,0,1-4.515,1.766m19.783-23.489a33.534,33.534,0,0,0-13.063,8.377,43.838,43.838,0,0,0-6.587,9.018c-1.29,2.505-1.652,4.377-.966,5.008s2.522.118,4.912-1.378a43.8,43.8,0,0,0,8.44-7.313,33.528,33.528,0,0,0,7.263-13.713" transform="translate(-282.986 -278.743)" fill="#59906f"/>
      <path id="Path_99400" data-name="Path 99400" d="M460.207,475.427l5.1-5.54,3.9-4.239,1.086-1.181,2.988-3.247,1.073-1.166L476.7,457.5l4.962-5.393Z" transform="translate(-284.413 -279.406)" fill="#467156"/>
      <path id="Path_99401" data-name="Path 99401" d="M459.543,475.174a.411.411,0,0,1-.3-.69l21.46-23.323a.411.411,0,0,1,.6.557l-21.46,23.323a.413.413,0,0,1-.3.133" transform="translate(-283.749 -278.742)" fill="#467156"/>
      <path id="Path_99402" data-name="Path 99402" d="M497.233,472.92l4.252.244Z" transform="translate(-307.296 -292.27)" fill="#467156"/>
      <path id="Path_99403" data-name="Path 99403" d="M500.821,472.9H500.8l-4.252-.243a.41.41,0,0,1-.387-.434.4.4,0,0,1,.433-.386l4.252.243a.411.411,0,0,1-.023.821" transform="translate(-306.632 -291.599)" fill="#467156"/>
      <path id="Path_99404" data-name="Path 99404" d="M494.424,475.972l4.463.62Z" transform="translate(-305.56 -294.157)" fill="#467156"/>
      <path id="Path_99405" data-name="Path 99405" d="M498.223,476.335a.3.3,0,0,1-.057,0l-4.462-.619a.41.41,0,0,1-.351-.463.4.4,0,0,1,.464-.35l4.463.619a.411.411,0,0,1-.056.818" transform="translate(-304.896 -293.489)" fill="#467156"/>
      <path id="Path_99406" data-name="Path 99406" d="M481.605,473.143l1.91,4.328Z" transform="translate(-297.638 -292.408)" fill="#467156"/>
      <path id="Path_99407" data-name="Path 99407" d="M482.849,477.216a.411.411,0,0,1-.376-.246l-1.909-4.328a.411.411,0,1,1,.752-.331l1.909,4.328a.411.411,0,0,1-.376.576" transform="translate(-296.973 -291.743)" fill="#467156"/>
      <path id="Path_99408" data-name="Path 99408" d="M477.979,477.062l2.208,4.011Z" transform="translate(-295.397 -294.83)" fill="#467156"/>
      <path id="Path_99409" data-name="Path 99409" d="M479.523,480.82a.412.412,0,0,1-.361-.213l-2.208-4.011a.411.411,0,0,1,.72-.4l2.208,4.011a.411.411,0,0,1-.359.609" transform="translate(-294.732 -294.166)" fill="#467156"/>
      <path id="Path_99410" data-name="Path 99410" d="M473.55,498.659l4.72.86Z" transform="translate(-292.66 -308.177)" fill="#467156"/>
      <path id="Path_99411" data-name="Path 99411" d="M477.605,499.267a.409.409,0,0,1-.074-.007l-4.72-.86a.411.411,0,0,1,.147-.808l4.719.86a.411.411,0,0,1-.073.815" transform="translate(-291.995 -307.514)" fill="#467156"/>
      <path id="Path_99412" data-name="Path 99412" d="M499.857,459.375l1.352,2.615Z" transform="translate(-308.918 -283.899)" fill="#467156"/>
      <path id="Path_99413" data-name="Path 99413" d="M500.545,461.737a.412.412,0,0,1-.366-.222l-1.352-2.615a.411.411,0,0,1,.73-.378l1.352,2.615a.412.412,0,0,1-.365.6" transform="translate(-308.253 -283.234)" fill="#467156"/>
      <path id="Path_99414" data-name="Path 99414" d="M383.2,39.344a.164.164,0,0,1-.106-.038.167.167,0,0,1-.058-.118l-.239-5.427a.164.164,0,0,1,.144-.17l38.922-4.7a.155.155,0,0,1,.18.128l1.145,5.2a.163.163,0,0,1-.14.2l-39.829,4.926h-.02m-.068-5.446.224,5.1,39.473-4.881L421.75,29.23Z" transform="translate(-236.57 -17.851)" fill="#a87e18"/>
      <path id="Path_99415" data-name="Path 99415" d="M217.872,339.3H152.095a.29.29,0,0,1-.29-.29V321.018a.29.29,0,0,1,.58,0v17.7h65.487a.29.29,0,1,1,0,.579" transform="translate(-93.817 -198.214)" fill="#8c9e46"/>
      <path id="Path_99416" data-name="Path 99416" d="M315.579,440.331a.29.29,0,0,1-.287-.334l7.207-46.752a.3.3,0,0,1,.33-.242.29.29,0,0,1,.242.331l-7.207,46.752a.289.289,0,0,1-.286.246" transform="translate(-194.852 -242.879)" fill="#8c9e46"/>
      <path id="Path_99417" data-name="Path 99417" d="M160.215,378.177a.289.289,0,0,1-.286-.245l-1.506-9.664a.29.29,0,1,1,.573-.089l1.505,9.664a.29.29,0,0,1-.241.331.3.3,0,0,1-.045,0" transform="translate(-97.905 -227.388)" fill="#8c9e46"/>
      <path id="Path_99418" data-name="Path 99418" d="M216.112,326.784H156.419a.29.29,0,0,1,0-.579h59.694a.29.29,0,1,1,0,.579" transform="translate(-96.49 -201.599)" fill="#8c9e46"/>
      <path id="Path_99419" data-name="Path 99419" d="M146.932,155.421a13.525,13.525,0,1,1,13.587,13.408,13.5,13.5,0,0,1-13.587-13.408" transform="translate(-90.806 -87.69)" fill="#59906f"/>
      <path id="Path_99420" data-name="Path 99420" d="M159.985,168.649a13.759,13.759,0,1,1-.06-27.518h.064a13.759,13.759,0,1,1,.061,27.518Zm-13.232-13.7a13.208,13.208,0,0,0,13.232,13.119h.063a13.18,13.18,0,1,0-.059-26.359h-.062a13.209,13.209,0,0,0-13.175,13.24" transform="translate(-90.336 -87.221)" fill="#59906f"/>
      <path id="Path_99421" data-name="Path 99421" d="M163.923,169.965a11.37,11.37,0,1,1,11.362-11.421,11.405,11.405,0,0,1-11.362,11.421m-.1-21.838a10.469,10.469,0,1,0,10.56,10.421,10.5,10.5,0,0,0-10.56-10.421" transform="translate(-94.219 -90.987)" fill="#467156"/>
      <rect id="Rectangle_2766" data-name="Rectangle 2766" width="0.901" height="1.618" transform="matrix(1, -0.011, 0.011, 1, 69.144, 54.468)" fill="#467156"/>
      <rect id="Rectangle_2767" data-name="Rectangle 2767" width="1.618" height="0.901" transform="translate(72.564 56.349) rotate(-72.671)" fill="#467156"/>
      <rect id="Rectangle_2768" data-name="Rectangle 2768" width="1.618" height="0.901" transform="matrix(0.578, -0.816, 0.816, 0.578, 75.718, 57.65)" fill="#467156"/>
      <rect id="Rectangle_2769" data-name="Rectangle 2769" width="1.618" height="0.901" transform="translate(78.315 59.861) rotate(-36.71)" fill="#467156"/>
      <rect id="Rectangle_2770" data-name="Rectangle 2770" width="1.617" height="0.901" transform="translate(80.102 62.767) rotate(-18.666)" fill="#467156"/>
      <path id="Path_99422" data-name="Path 99422" d="M212.746,174.373l-.012-.9,1.619-.019.009.9Z" transform="translate(-131.472 -107.196)" fill="#467156"/>
      <rect id="Rectangle_2771" data-name="Rectangle 2771" width="0.901" height="1.618" transform="matrix(0.298, -0.955, 0.955, 0.298, 80.714, 70.451)" fill="#467156"/>
      <rect id="Rectangle_2772" data-name="Rectangle 2772" width="0.901" height="1.618" transform="translate(79.458 73.962) rotate(-61.77)" fill="#467156"/>
      <rect id="Rectangle_2773" data-name="Rectangle 2773" width="0.901" height="1.618" transform="translate(76.824 76.83) rotate(-42.789)" fill="#467156"/>
      <rect id="Rectangle_2774" data-name="Rectangle 2774" width="0.901" height="1.617" transform="matrix(0.948, -0.319, 0.319, 0.948, 73.6, 78.466)" fill="#467156"/>
      <rect id="Rectangle_2775" data-name="Rectangle 2775" width="0.901" height="1.617" transform="translate(70.01 79.231) rotate(-0.623)" fill="#467156"/>
      <rect id="Rectangle_2776" data-name="Rectangle 2776" width="1.618" height="0.901" transform="translate(65.666 80.272) rotate(-72.563)" fill="#467156"/>
      <rect id="Rectangle_2777" data-name="Rectangle 2777" width="1.618" height="0.901" transform="matrix(0.58, -0.815, 0.815, 0.58, 61.951, 78.298)" fill="#467156"/>
      <rect id="Rectangle_2778" data-name="Rectangle 2778" width="1.618" height="0.901" transform="matrix(0.803, -0.596, 0.596, 0.803, 58.786, 75.123)" fill="#467156"/>
      <rect id="Rectangle_2779" data-name="Rectangle 2779" width="1.617" height="0.901" transform="translate(56.926 71.295) rotate(-18.589)" fill="#467156"/>
      <rect id="Rectangle_2780" data-name="Rectangle 2780" width="0.901" height="1.618" transform="translate(57.031 63.617) rotate(-72.63)" fill="#467156"/>
      <rect id="Rectangle_2781" data-name="Rectangle 2781" width="0.901" height="1.618" transform="matrix(0.579, -0.815, 0.815, 0.579, 58.853, 59.943)" fill="#467156"/>
      <rect id="Rectangle_2782" data-name="Rectangle 2782" width="0.901" height="1.618" transform="translate(61.631 57.09) rotate(-36.629)" fill="#467156"/>
      <rect id="Rectangle_2783" data-name="Rectangle 2783" width="0.901" height="1.618" transform="translate(65.263 55.121) rotate(-18.636)" fill="#467156"/>
      <rect id="Rectangle_2784" data-name="Rectangle 2784" width="1.618" height="0.901" transform="translate(56.334 67.282) rotate(-0.437)" fill="#467156"/>
    </g>
  </g>
  <text id="_3" data-name="₹" transform="translate(64.988 73.066)" fill="#467156" font-size="18" font-family="MyriadPro-Regular, Myriad Pro"><tspan x="0" y="0">₹</tspan></text>
  <g id="Group_12858" data-name="Group 12858">
    <g id="Group_12857" data-name="Group 12857" clip-path="url(#clip-path)">
      <path id="Path_99423" data-name="Path 99423" d="M386.671,116.952a.165.165,0,0,1-.164-.155L384.34,76.543a.165.165,0,0,1,.155-.173.158.158,0,0,1,.173.155l2.167,40.253a.165.165,0,0,1-.155.173Z" transform="translate(-237.526 -47.198)" fill="#a87e18"/>
      <path id="Path_99424" data-name="Path 99424" d="M408.81,5.379a.164.164,0,0,1-.019-.327L435.57,1.875a.161.161,0,0,1,.182.144.164.164,0,0,1-.144.182L408.829,5.377h-.019" transform="translate(-252.548 -1.158)" fill="#a87e18"/>
      <path id="Path_99425" data-name="Path 99425" d="M381.74,12.4a.164.164,0,0,1-.019-.327l6.9-.823a.164.164,0,0,1,.039.326l-6.9.823h-.019" transform="translate(-235.819 -6.953)" fill="#a87e18"/>
      <path id="Path_99426" data-name="Path 99426" d="M300,426.452l-.035,0a.289.289,0,0,1-.253-.323l5.909-48.224a.294.294,0,0,1,.322-.252.289.289,0,0,1,.253.323L300.288,426.2a.289.289,0,0,1-.287.255" transform="translate(-185.225 -233.391)" fill="#8c9e46"/>
      <path id="Path_99427" data-name="Path 99427" d="M106.873,455.508l4.574,25.471,12.3-.008s.589-.768-.452-1.269c-.743-.357-1.379-.3-2.1-.667s-4.54-23.527-4.54-23.527Z" transform="translate(-66.049 -281.509)" fill="#f2cbb1"/>
      <path id="Path_99428" data-name="Path 99428" d="M110.693,480.562l-4.574-25.471a.29.29,0,0,1,.285-.341h9.79a.29.29,0,0,1,.286.243c1.465,8.873,3.837,22.312,4.432,23.339a4.123,4.123,0,0,0,.939.291,4.882,4.882,0,0,1,1.105.35,1.265,1.265,0,0,1,.757.814,1.129,1.129,0,0,1-.2.893.29.29,0,0,1-.23.113l-12.3.008a.29.29,0,0,1-.285-.239m12.455-.644a.768.768,0,0,0-.443-.422,4.314,4.314,0,0,0-.981-.307,4.452,4.452,0,0,1-1.121-.363c-.7-.353-2.906-12.913-4.655-23.5h-9.2l4.47,24.891,11.893-.008a.48.48,0,0,0,.034-.3" transform="translate(-65.58 -281.041)" fill="#f2cbb1"/>
      <path id="Path_99429" data-name="Path 99429" d="M75.281,453.232l-1.806,26.34,12.3-.008s.589-.768-.452-1.269c-.743-.357-1.379-.3-2.1-.667s.826-24.4.826-24.4Z" transform="translate(-45.408 -280.103)" fill="#f2cbb1"/>
      <path id="Path_99430" data-name="Path 99430" d="M72.794,479.3a.29.29,0,0,1-.078-.218l1.807-26.34a.29.29,0,0,1,.289-.27h8.776a.291.291,0,0,1,.29.308c-.584,9.093-1.3,22.883-.913,24.155a4.227,4.227,0,0,0,.914.279,4.893,4.893,0,0,1,1.105.349,1.266,1.266,0,0,1,.756.814,1.129,1.129,0,0,1-.2.893.29.29,0,0,1-.23.113l-12.3.008a.288.288,0,0,1-.212-.092m12.381-.791a.768.768,0,0,0-.443-.422,4.314,4.314,0,0,0-.981-.307,4.452,4.452,0,0,1-1.121-.363c-.585-.3-.367-8.494.649-24.365h-8.2l-1.767,25.76,11.825-.008a.477.477,0,0,0,.034-.3" transform="translate(-44.939 -279.634)" fill="#f2cbb1"/>
      <path id="Path_99431" data-name="Path 99431" d="M86.019,513.516l-13.3.017.163-5.888c2.182.256,4.176,3.311,6.382,2.611,1.267-.393,2.382-2.014,3.6-1.946a5.653,5.653,0,0,0,.4,2.355c.777.529,1.467.461,2.269.973a1.4,1.4,0,0,1,.489,1.878" transform="translate(-44.939 -313.731)" fill="#195b58"/>
      <path id="Path_99432" data-name="Path 99432" d="M129.717,514.606l-13.3.016-.876-5.35c2.182.244,5.214,2.888,7.42,2.219,1.267-.375,2.382-1.924,3.6-1.859a5.2,5.2,0,0,0,.4,2.251c.777.505,1.467.44,2.269.929a1.3,1.3,0,0,1,.489,1.794" transform="translate(-71.404 -314.736)" fill="#195b58"/>
      <path id="Path_99433" data-name="Path 99433" d="M92.453,277.423a1.253,1.253,0,1,1,1.248,1.14,1.2,1.2,0,0,1-1.248-1.14m.579,0a.679.679,0,1,0,.668-.56.622.622,0,0,0-.668.56" transform="translate(-57.137 -170.746)" fill="#120610"/>
      <path id="Path_99434" data-name="Path 99434" d="M99.823,288.8a.291.291,0,0,1-.164.161l-4.468,1.7a.287.287,0,0,1-.1.019.305.305,0,0,1-.136-.032.3.3,0,0,1-.146-.19l-1.083-4.575a.279.279,0,0,1,0-.118,4.3,4.3,0,0,0,.637.28,4.832,4.832,0,0,0,3.62-.178,4.193,4.193,0,0,0,.511-.279c.15.393.767,1.761,1.33,2.976a.287.287,0,0,1,0,.231" transform="translate(-57.917 -176.499)" fill="#e8bfa3"/>
      <path id="Path_99435" data-name="Path 99435" d="M96.781,269.848a4.086,4.086,0,0,1-1.97,3.441,4.236,4.236,0,0,1-.51.278,4.829,4.829,0,0,1-3.62.178,4.4,4.4,0,0,1-.638-.28,4.116,4.116,0,0,1-2.277-3.617,4.521,4.521,0,0,1,9.015,0" transform="translate(-54.24 -164.195)" fill="#f2cbb1"/>
      <path id="Path_99436" data-name="Path 99436" d="M102.268,244.325a.29.29,0,0,0,.273-.192l2.736-7.608,7.767,4.606a.29.29,0,0,0,.3-.5l-8.068-4.785a.283.283,0,0,0-.246-.024.29.29,0,0,0-.175.175L102,243.938a.29.29,0,0,0,.175.371.3.3,0,0,0,.1.017" transform="translate(-63.024 -145.732)" fill="#dfeae9"/>
      <path id="Path_99437" data-name="Path 99437" d="M107.26,264.848a.29.29,0,0,0,.2-.083,40.248,40.248,0,0,0,5.064-6.893,65.017,65.017,0,0,0,4.111-8.639.29.29,0,0,0-.54-.209,64.457,64.457,0,0,1-4.063,8.543,40.572,40.572,0,0,1-4.977,6.785.29.29,0,0,0,.2.5" transform="translate(-66.109 -153.785)" fill="#dfeae9"/>
      <path id="Path_99438" data-name="Path 99438" d="M92.622,293.85l4.492,1.923,5.68,3.663-2.115,9.711-1.75,8.938L83.464,316.44l-1.274-6.283s.165-11.7,2.135-13.509,3.64-1.151,3.64-1.151Z" transform="translate(-50.794 -181.603)" fill="#99bfb8"/>
      <path id="Path_99439" data-name="Path 99439" d="M98.429,317.905l-15.464-1.644a.289.289,0,0,1-.254-.23l-1.28-6.345c.007-.483.191-11.844,2.229-13.719a4.033,4.033,0,0,1,3.832-1.243l4.564-1.615a.3.3,0,0,1,.21.006l4.536,1.946,5.68,3.663a.289.289,0,0,1,.126.305l-2.114,9.7-1.75,8.938a.289.289,0,0,1-.284.234l-.031,0m-1.9-22.333-4.389-1.879-4.55,1.61a.3.3,0,0,1-.2,0c-.062-.025-1.541-.56-3.339,1.094-1.54,1.416-2,10.081-2.047,13.238l1.232,6.076,14.99,1.593,1.7-8.683L102,299.1Z" transform="translate(-50.325 -181.135)" fill="#99bfb8"/>
      <path id="Path_99440" data-name="Path 99440" d="M89.4,354.611l5.92,39.121s0,.633-6.919.941-7.566-1.958-12.166-2.021-9.98-.335-9.98-.335,1.338-12.009,2.148-16.766.969-8.785,2.681-14.128a42.239,42.239,0,0,0,1.967-8.719Z" transform="translate(-40.949 -217.975)" fill="#ea8744"/>
      <path id="Path_99441" data-name="Path 99441" d="M159.448,290.659c2.307-1.2,7.922-9.15,7.922-9.15s.593-4.189,1.148-4.853.761,2.761.761,2.761,2.568-4.882,3-5.09-.973,3.689-.973,3.689,2.908-3.342,3.164-3.117-2.146,4.016-2.146,4.016,3.122-3.054,3.327-2.715-2.505,4.072-2.505,4.072,3.313-2.7,2.457-1.435-4.778,5.908-5.879,6.51-3.994,10.7-8.344,13.517a8.606,8.606,0,0,1-8.15.936l2.423-7.929a9.352,9.352,0,0,0,3.8-1.211" transform="translate(-94.696 -169.532)" fill="#f2cbb1"/>
      <path id="Path_99442" data-name="Path 99442" d="M152.628,299.6a.29.29,0,0,1-.149-.345l2.423-7.929a.291.291,0,0,1,.274-.2,9.238,9.238,0,0,0,3.669-1.178c2.119-1.1,7.27-8.289,7.78-9,.122-.851.64-4.256,1.2-4.929a.437.437,0,0,1,.487-.17c.132.043.5.163.705,2.1.979-1.829,2.279-4.154,2.661-4.339a.388.388,0,0,1,.375.047c.126.114.308.277-.469,2.619,1.269-1.4,2.059-2.112,2.353-2.132a.413.413,0,0,1,.251.083c.159.141.35.311-.955,2.531,1.539-1.374,1.829-1.345,1.936-1.326a.411.411,0,0,1,.254.163c.089.148.244.4-1.393,2.8,1.135-.809,1.284-.675,1.42-.553.241.22.023.546-.083.7-.891,1.322-4.818,5.967-5.981,6.6a13.864,13.864,0,0,0-1.618,3.139c-1.5,3.372-3.771,8.468-6.707,10.368a9.449,9.449,0,0,1-5.19,1.6,7.827,7.827,0,0,1-3.246-.653m20.228-19.564a.29.29,0,0,1-.418-.395c.879-1.21,1.793-2.567,2.218-3.322-.63.489-1.693,1.455-2.6,2.344a.29.29,0,0,1-.448-.363c.7-1.112,1.433-2.344,1.826-3.109-.605.581-1.544,1.6-2.379,2.554a.29.29,0,0,1-.491-.288c.311-.864.629-1.83.829-2.533-.589.961-1.505,2.614-2.323,4.167a.3.3,0,0,1-.317.149.291.291,0,0,1-.228-.266,12.169,12.169,0,0,0-.348-2.428,24.221,24.221,0,0,0-.985,4.544.288.288,0,0,1-.05.126c-.231.327-5.683,8.024-8.026,9.24a10.468,10.468,0,0,1-3.714,1.231l-2.288,7.488a8.482,8.482,0,0,0,7.639-1.014c2.79-1.806,5.017-6.807,6.492-10.117.95-2.135,1.427-3.171,1.869-3.412.881-.481,4-4.056,5.351-5.829-.472.335-1.074.8-1.605,1.232" transform="translate(-94.226 -169.076)" fill="#f2cbb1"/>
      <path id="Path_99443" data-name="Path 99443" d="M119.539,206.711l2.962-16.178s2.013-4.234,1.974-4.937-2.126,2.127-2.126,2.127-.456-5.355-.837-5.773-.683,4.1-.683,4.1-.627-4.747-.912-4.785-.228,4.633-.228,4.633-.588-4.026-.911-3.19.151,4.329-.38,6.532-4.871,13.805-4.871,13.805Z" transform="translate(-70.162 -112.025)" fill="#f2cbb1"/>
      <path id="Path_99444" data-name="Path 99444" d="M119.07,206.533a.29.29,0,0,0,.285-.238l2.955-16.141c.376-.793,2.026-4.315,1.986-5.043a.381.381,0,0,0-.264-.371c-.159-.046-.475-.142-1.93,1.738-.17-1.846-.494-4.808-.843-5.192a.419.419,0,0,0-.376-.1c-.138.048-.364.127-.587,1.907-.406-2.526-.61-2.553-.808-2.58a.368.368,0,0,0-.255.079c-.076.068-.226.2-.285,1.953-.212-.67-.376-.689-.5-.7-.084-.01-.291,0-.406.3a8.583,8.583,0,0,0-.136,2.388,18.658,18.658,0,0,1-.255,4.181c-.52,2.161-4.818,13.656-4.861,13.772a.29.29,0,1,0,.543.2c.177-.474,4.353-11.644,4.882-13.839a19.086,19.086,0,0,0,.271-4.325c-.006-.533-.013-1.05,0-1.457.153.63.325,1.57.448,2.414a.29.29,0,0,0,.577-.045c-.014-1.136,0-2.353.033-3.233.171.915.369,2.212.53,3.426a.276.276,0,0,0,.3.252.291.291,0,0,0,.28-.271c.079-1.183.215-2.512.349-3.291.194,1.026.43,3.076.592,4.967a.29.29,0,0,0,.21.255.286.286,0,0,0,.312-.107,20.138,20.138,0,0,1,1.5-1.83,44.629,44.629,0,0,1-1.847,4.344.292.292,0,0,0-.024.072l-2.962,16.178a.29.29,0,0,0,.233.337.307.307,0,0,0,.053,0" transform="translate(-69.692 -111.557)" fill="#f2cbb1"/>
      <path id="Path_99445" data-name="Path 99445" d="M99.223,407.752a.29.29,0,0,0,.129-.549,22.754,22.754,0,0,1-10.472-10.814.29.29,0,0,0-.519.259,23.613,23.613,0,0,0,10.732,11.073.286.286,0,0,0,.129.031" transform="translate(-54.59 -244.875)" fill="#efaa7b"/>
      <path id="Path_99446" data-name="Path 99446" d="M96.907,430.979a.29.29,0,0,0,.07-.571c-4.456-1.113-10.149-4.108-12.122-8.056a.29.29,0,0,0-.519.259c2.362,4.724,8.969,7.477,12.5,8.359a.3.3,0,0,0,.07.008" transform="translate(-52.102 -260.92)" fill="#efaa7b"/>
      <path id="Path_99447" data-name="Path 99447" d="M104.881,257.032l-1.078-1.677a2.8,2.8,0,0,0,2.036-3.314c-.439-2.714-1.876-3.434-1.876-3.434a1.882,1.882,0,0,0,.08-1.8,12.446,12.446,0,0,0-1.078-2.077l2.834-7.985,8.026,4.791a54.372,54.372,0,0,1-3.594,7.745c-1.836,3-5.349,7.746-5.349,7.746" transform="translate(-63.633 -146.314)" fill="#bddbd7"/>
      <path id="Path_99448" data-name="Path 99448" d="M103.679,260.955a.289.289,0,0,0,.242-.13,4.3,4.3,0,0,0-.176-3.433,1.823,1.823,0,0,0-1.329-1.21.285.285,0,0,0-.322.253.289.289,0,0,0,.253.322c.428.052.73.573.872.879a3.811,3.811,0,0,1,.219,2.87.29.29,0,0,0,.082.4.286.286,0,0,0,.16.048" transform="translate(-63.094 -158.321)" fill="#fff"/>
      <path id="Path_99449" data-name="Path 99449" d="M113.528,238.285l6.011,3.664Z" transform="translate(-70.162 -147.263)" fill="#99bfb8"/>
      <path id="Path_99450" data-name="Path 99450" d="M119.07,241.77a.29.29,0,0,0,.151-.537l-6.011-3.664a.29.29,0,0,0-.3.495l6.011,3.664a.288.288,0,0,0,.15.042" transform="translate(-69.693 -146.794)" fill="#99bfb8"/>
      <path id="Path_99451" data-name="Path 99451" d="M125.72,305.728l-2.946,10.248s-23.321-5.692-18.3-14.237c2.853-4.853,7.6-3.01,13.184-.239,4.25,2.108,8.061,4.228,8.061,4.228" transform="translate(-64.129 -184.618)" fill="#bddbd7"/>
      <path id="Path_99452" data-name="Path 99452" d="M65.259,261.969c.212-.024.425-.041.634-.08a3.468,3.468,0,0,0,2.131-1.407,4.718,4.718,0,0,0-.566-5.976,4.541,4.541,0,0,0-4.842-1.23c-1.835.79-1.376,3.125-2.2,4.6-1.047,1.867-3.634.666-4.7,3.092-.814,1.856-.277,5.053-1.389,6.626-.913,1.291-2.681,1.52-4.03,2.147-2.894,1.349-5.054,4.413-4.327,7.746a25.352,25.352,0,0,0,1.275,3.634A9.189,9.189,0,0,0,50.66,284.7a9.793,9.793,0,0,0,4.117,1.416c4.064.5,8.56-2.543,8.785-6.838.116-2.2-.956-4.63-.307-6.774.435-1.438,1.567-1.918,2.532-2.863,2.291-2.245-.8-4.662-1.835-6.073-.446-.607.14-1.319.736-1.5a3.234,3.234,0,0,1,.571-.105" transform="translate(-28.325 -156.351)" fill="#071e28"/>
      <path id="Path_99453" data-name="Path 99453" d="M105.441,275.1l1.288,1.231-.756.6" transform="translate(-65.164 -170.013)" fill="none" stroke="#223542" stroke-linecap="round" stroke-linejoin="round" stroke-width="0.5"/>
      <path id="Path_99454" data-name="Path 99454" d="M104.886,281.79a1.47,1.47,0,0,0,1.322-.513" transform="translate(-64.821 -173.833)" fill="none" stroke="#223542" stroke-linecap="round" stroke-linejoin="round" stroke-width="0.5"/>
      <path id="Path_99455" data-name="Path 99455" d="M102.193,276.752c.062.15.033.3-.065.345s-.228-.048-.29-.2-.033-.3.065-.345.228.048.29.2" transform="translate(-62.917 -170.908)" fill="#223542"/>
      <path id="Path_99456" data-name="Path 99456" d="M107.476,273.841c.073.145.055.3-.04.349s-.231-.032-.3-.177-.055-.3.04-.349.231.031.3.176" transform="translate(-66.181 -169.119)" fill="#223542"/>
      <path id="Path_99457" data-name="Path 99457" d="M100.178,275.043a.763.763,0,0,1,.8-.431" transform="translate(-61.911 -169.702)" fill="none" stroke="#223542" stroke-linecap="round" stroke-linejoin="round" stroke-width="0.5"/>
      <path id="Path_99458" data-name="Path 99458" d="M105.6,272.316a.53.53,0,0,1,.616-.315" transform="translate(-65.261 -168.089)" fill="none" stroke="#223542" stroke-linecap="round" stroke-linejoin="round" stroke-width="0.5"/>
    </g>
  </g>
</svg>
